<?xml version="1.0" encoding="UTF-8" standalone="no"?>
<svg
   xmlns:osb="http://www.openswatchbook.org/uri/2009/osb"
   xmlns:dc="http://purl.org/dc/elements/1.1/"
   xmlns:cc="http://creativecommons.org/ns#"
   xmlns:rdf="http://www.w3.org/1999/02/22-rdf-syntax-ns#"
   xmlns:svg="http://www.w3.org/2000/svg"
   xmlns="http://www.w3.org/2000/svg"
   xmlns:sodipodi="http://sodipodi.sourceforge.net/DTD/sodipodi-0.dtd"
   xmlns:inkscape="http://www.inkscape.org/namespaces/inkscape"
   width="210mm"
   height="297mm"
   viewBox="0 0 210 297"
   version="1.1"
   id="svg8"
   inkscape:version="1.0 (4035a4fb49, 2020-05-01)"
   sodipodi:docname="workspace.svg">
  <defs
     id="defs2">
    <marker
       inkscape:isstock="true"
       style="overflow:visible"
       id="TriangleOutL"
       refX="0.0"
       refY="0.0"
       orient="auto"
       inkscape:stockid="TriangleOutL">
      <path
         transform="scale(0.8)"
         style="fill-rule:evenodd;stroke:#000000;stroke-width:1pt;stroke-opacity:1;fill:#000000;fill-opacity:1"
         d="M 5.77,0.0 L -2.88,5.0 L -2.88,-5.0 L 5.77,0.0 z "
         id="path1098" />
    </marker>
    <marker
       inkscape:isstock="true"
       style="overflow:visible"
       id="marker1706"
       refX="0.0"
       refY="0.0"
       orient="auto"
       inkscape:stockid="DiamondLend">
      <path
         transform="scale(0.8) translate(-7,0)"
         style="fill-rule:evenodd;stroke:#000000;stroke-width:1pt;stroke-opacity:1;fill:#000000;fill-opacity:1"
         d="M 0,-7.0710768 L -7.0710894,0 L 0,7.0710589 L 7.0710462,0 L 0,-7.0710768 z "
         id="path1704" />
    </marker>
    <marker
       inkscape:isstock="true"
       style="overflow:visible"
       id="DotL"
       refX="0.0"
       refY="0.0"
       orient="auto"
       inkscape:stockid="DotL">
      <path
         transform="scale(0.8) translate(7.4, 1)"
         style="fill-rule:evenodd;stroke:#000000;stroke-width:1pt;stroke-opacity:1;fill:#000000;fill-opacity:1"
         d="M -2.5,-1.0 C -2.5,1.7600000 -4.7400000,4.0 -7.5,4.0 C -10.260000,4.0 -12.5,1.7600000 -12.5,-1.0 C -12.5,-3.7600000 -10.260000,-6.0 -7.5,-6.0 C -4.7400000,-6.0 -2.5,-3.7600000 -2.5,-1.0 z "
         id="path1017" />
    </marker>
    <marker
       inkscape:isstock="true"
       style="overflow:visible"
       id="DiamondLend"
       refX="0.0"
       refY="0.0"
       orient="auto"
       inkscape:stockid="DiamondLend">
      <path
         transform="scale(0.8) translate(-7,0)"
         style="fill-rule:evenodd;stroke:#000000;stroke-width:1pt;stroke-opacity:1;fill:#000000;fill-opacity:1"
         d="M 0,-7.0710768 L -7.0710894,0 L 0,7.0710589 L 7.0710462,0 L 0,-7.0710768 z "
         id="path1053" />
    </marker>
    <marker
       inkscape:isstock="true"
       style="overflow:visible"
       id="Tail"
       refX="0.0"
       refY="0.0"
       orient="auto"
       inkscape:stockid="Tail">
      <g
         style="stroke:#000000;stroke-opacity:1;fill:#000000;fill-opacity:1"
         transform="scale(-1.2)"
         id="g1004">
        <path
           style="fill:#000000;fill-rule:evenodd;stroke:#000000;stroke-width:0.8;stroke-linecap:round;stroke-opacity:1;fill-opacity:1"
           d="M -3.8048674,-3.9585227 L 0.54352094,0"
           id="path992" />
        <path
           style="fill:#000000;fill-rule:evenodd;stroke:#000000;stroke-width:0.8;stroke-linecap:round;stroke-opacity:1;fill-opacity:1"
           d="M -1.2866832,-3.9585227 L 3.0617053,0"
           id="path994" />
        <path
           style="fill:#000000;fill-rule:evenodd;stroke:#000000;stroke-width:0.8;stroke-linecap:round;stroke-opacity:1;fill-opacity:1"
           d="M 1.3053582,-3.9585227 L 5.6537466,0"
           id="path996" />
        <path
           style="fill:#000000;fill-rule:evenodd;stroke:#000000;stroke-width:0.8;stroke-linecap:round;stroke-opacity:1;fill-opacity:1"
           d="M -3.8048674,4.1775838 L 0.54352094,0.21974226"
           id="path998" />
        <path
           style="fill:#000000;fill-rule:evenodd;stroke:#000000;stroke-width:0.8;stroke-linecap:round;stroke-opacity:1;fill-opacity:1"
           d="M -1.2866832,4.1775838 L 3.0617053,0.21974226"
           id="path1000" />
        <path
           style="fill:#000000;fill-rule:evenodd;stroke:#000000;stroke-width:0.8;stroke-linecap:round;stroke-opacity:1;fill-opacity:1"
           d="M 1.3053582,4.1775838 L 5.6537466,0.21974226"
           id="path1002" />
      </g>
    </marker>
    <marker
       inkscape:isstock="true"
       style="overflow:visible"
       id="marker1328"
       refX="0.0"
       refY="0.0"
       orient="auto"
       inkscape:stockid="Arrow1Lstart">
      <path
         transform="scale(0.8) translate(12.5,0)"
         style="fill-rule:evenodd;stroke:#000000;stroke-width:1pt;stroke-opacity:1;fill:#000000;fill-opacity:1"
         d="M 0.0,0.0 L 5.0,-5.0 L -12.5,0.0 L 5.0,5.0 L 0.0,0.0 z "
         id="path1326" />
    </marker>
    <marker
       inkscape:isstock="true"
       style="overflow:visible"
       id="marker1270"
       refX="0.0"
       refY="0.0"
       orient="auto"
       inkscape:stockid="Arrow1Lstart">
      <path
         transform="scale(0.8) translate(12.5,0)"
         style="fill-rule:evenodd;stroke:#000000;stroke-width:1pt;stroke-opacity:1;fill:#000000;fill-opacity:1"
         d="M 0.0,0.0 L 5.0,-5.0 L -12.5,0.0 L 5.0,5.0 L 0.0,0.0 z "
         id="path1268" />
    </marker>
    <marker
       inkscape:isstock="true"
       style="overflow:visible"
       id="Arrow1Lstart"
       refX="0.0"
       refY="0.0"
       orient="auto"
       inkscape:stockid="Arrow1Lstart">
      <path
         transform="scale(0.8) translate(12.5,0)"
         style="fill-rule:evenodd;stroke:#000000;stroke-width:1pt;stroke-opacity:1;fill:#000000;fill-opacity:1"
         d="M 0.0,0.0 L 5.0,-5.0 L -12.5,0.0 L 5.0,5.0 L 0.0,0.0 z "
         id="path956" />
    </marker>
    <marker
       inkscape:isstock="true"
       style="overflow:visible"
       id="marker3339"
       refX="0.0"
       refY="0.0"
       orient="auto"
       inkscape:stockid="DotL">
      <path
         transform="scale(0.8) translate(7.4, 1)"
         style="fill-rule:evenodd;stroke:#000000;stroke-width:1pt;stroke-opacity:1;fill:#000000;fill-opacity:1"
         d="M -2.5,-1.0 C -2.5,1.7600000 -4.7400000,4.0 -7.5,4.0 C -10.260000,4.0 -12.5,1.7600000 -12.5,-1.0 C -12.5,-3.7600000 -10.260000,-6.0 -7.5,-6.0 C -4.7400000,-6.0 -2.5,-3.7600000 -2.5,-1.0 z "
         id="path3337" />
    </marker>
    <marker
       inkscape:isstock="true"
       style="overflow:visible"
       id="marker3329"
       refX="0.0"
       refY="0.0"
       orient="auto"
       inkscape:stockid="DotL">
      <path
         transform="scale(0.8) translate(7.4, 1)"
         style="fill-rule:evenodd;stroke:#000000;stroke-width:1pt;stroke-opacity:1;fill:#000000;fill-opacity:1"
         d="M -2.5,-1.0 C -2.5,1.7600000 -4.7400000,4.0 -7.5,4.0 C -10.260000,4.0 -12.5,1.7600000 -12.5,-1.0 C -12.5,-3.7600000 -10.260000,-6.0 -7.5,-6.0 C -4.7400000,-6.0 -2.5,-3.7600000 -2.5,-1.0 z "
         id="path3327" />
    </marker>
    <marker
       inkscape:isstock="true"
       style="overflow:visible"
       id="marker3319"
       refX="0.0"
       refY="0.0"
       orient="auto"
       inkscape:stockid="DotL">
      <path
         transform="scale(0.8) translate(7.4, 1)"
         style="fill-rule:evenodd;stroke:#000000;stroke-width:1pt;stroke-opacity:1;fill:#000000;fill-opacity:1"
         d="M -2.5,-1.0 C -2.5,1.7600000 -4.7400000,4.0 -7.5,4.0 C -10.260000,4.0 -12.5,1.7600000 -12.5,-1.0 C -12.5,-3.7600000 -10.260000,-6.0 -7.5,-6.0 C -4.7400000,-6.0 -2.5,-3.7600000 -2.5,-1.0 z "
         id="path3317" />
    </marker>
    <marker
       inkscape:isstock="true"
       style="overflow:visible"
       id="marker3309"
       refX="0.0"
       refY="0.0"
       orient="auto"
       inkscape:stockid="DotL">
      <path
         transform="scale(0.8) translate(7.4, 1)"
         style="fill-rule:evenodd;stroke:#000000;stroke-width:1pt;stroke-opacity:1;fill:#000000;fill-opacity:1"
         d="M -2.5,-1.0 C -2.5,1.7600000 -4.7400000,4.0 -7.5,4.0 C -10.260000,4.0 -12.5,1.7600000 -12.5,-1.0 C -12.5,-3.7600000 -10.260000,-6.0 -7.5,-6.0 C -4.7400000,-6.0 -2.5,-3.7600000 -2.5,-1.0 z "
         id="path3307" />
    </marker>
    <marker
       inkscape:isstock="true"
       style="overflow:visible"
       id="marker3299"
       refX="0.0"
       refY="0.0"
       orient="auto"
       inkscape:stockid="DotL">
      <path
         transform="scale(0.8) translate(7.4, 1)"
         style="fill-rule:evenodd;stroke:#000000;stroke-width:1pt;stroke-opacity:1;fill:#000000;fill-opacity:1"
         d="M -2.5,-1.0 C -2.5,1.7600000 -4.7400000,4.0 -7.5,4.0 C -10.260000,4.0 -12.5,1.7600000 -12.5,-1.0 C -12.5,-3.7600000 -10.260000,-6.0 -7.5,-6.0 C -4.7400000,-6.0 -2.5,-3.7600000 -2.5,-1.0 z "
         id="path3297" />
    </marker>
    <marker
       inkscape:isstock="true"
       style="overflow:visible"
       id="marker3289"
       refX="0.0"
       refY="0.0"
       orient="auto"
       inkscape:stockid="DotL">
      <path
         transform="scale(0.8) translate(7.4, 1)"
         style="fill-rule:evenodd;stroke:#000000;stroke-width:1pt;stroke-opacity:1;fill:#000000;fill-opacity:1"
         d="M -2.5,-1.0 C -2.5,1.7600000 -4.7400000,4.0 -7.5,4.0 C -10.260000,4.0 -12.5,1.7600000 -12.5,-1.0 C -12.5,-3.7600000 -10.260000,-6.0 -7.5,-6.0 C -4.7400000,-6.0 -2.5,-3.7600000 -2.5,-1.0 z "
         id="path3287" />
    </marker>
    <linearGradient
       id="linearGradient2799"
       osb:paint="solid">
      <stop
         style="stop-color:#000000;stop-opacity:1;"
         offset="0"
         id="stop2797" />
    </linearGradient>
  </defs>
  <sodipodi:namedview
     id="base"
     pagecolor="#ffffff"
     bordercolor="#666666"
     borderopacity="1.0"
     inkscape:pageopacity="0.0"
     inkscape:pageshadow="2"
     inkscape:zoom="0.70710678"
     inkscape:cx="-91.214847"
     inkscape:cy="172.8996"
     inkscape:document-units="mm"
     inkscape:current-layer="layer1"
     inkscape:document-rotation="0"
     showgrid="false"
     inkscape:snap-bbox="true"
     inkscape:bbox-nodes="false"
     inkscape:snap-bbox-edge-midpoints="false"
     inkscape:snap-object-midpoints="true"
     inkscape:object-paths="false"
     inkscape:snap-intersection-paths="true"
     inkscape:snap-smooth-nodes="false"
     inkscape:snap-midpoints="false"
     inkscape:snap-center="true"
     inkscape:snap-bbox-midpoints="true"
     inkscape:bbox-paths="false"
     inkscape:snap-global="true"
     inkscape:object-nodes="true"
     inkscape:window-width="1920"
     inkscape:window-height="1017"
     inkscape:window-x="-8"
     inkscape:window-y="-8"
     inkscape:window-maximized="1" />
  <metadata
     id="metadata5">
    <rdf:RDF>
      <cc:Work
         rdf:about="">
        <dc:format>image/svg+xml</dc:format>
        <dc:type
           rdf:resource="http://purl.org/dc/dcmitype/StillImage" />
        <dc:title />
      </cc:Work>
    </rdf:RDF>
  </metadata>
  <g
     inkscape:label="Layer 1"
     inkscape:groupmode="layer"
     id="layer1">
    <circle
       r="58.93293"
       cy="-90.975868"
       cx="102.68128"
       id="circle2843"
       style="opacity:0.999;fill:none;fill-opacity:1;stroke:#000000;stroke-width:0.1;stroke-opacity:1" />
    <text
       xml:space="preserve"
       style="font-style:normal;font-weight:normal;font-size:10.5833px;line-height:1.25;font-family:sans-serif;fill:#000000;fill-opacity:1;stroke:none;stroke-width:0.264583"
       x="56.507439"
       y="5.8586307"
       id="text2847"><tspan
         sodipodi:role="line"
         id="tspan2845"
         x="56.507439"
         y="5.8586307"
         style="stroke-width:0.264583">5minutes</tspan></text>
    <path
       id="path4073"
       style="color:#000000;font-style:normal;font-variant:normal;font-weight:normal;font-stretch:normal;font-size:medium;line-height:normal;font-family:sans-serif;font-variant-ligatures:normal;font-variant-position:normal;font-variant-caps:normal;font-variant-numeric:normal;font-variant-alternates:normal;font-variant-east-asian:normal;font-feature-settings:normal;font-variation-settings:normal;text-indent:0;text-align:start;text-decoration:none;text-decoration-line:none;text-decoration-style:solid;text-decoration-color:#000000;letter-spacing:normal;word-spacing:normal;text-transform:none;writing-mode:lr-tb;direction:ltr;text-orientation:mixed;dominant-baseline:auto;baseline-shift:baseline;text-anchor:start;white-space:normal;shape-padding:0;shape-margin:0;inline-size:0;clip-rule:nonzero;display:inline;overflow:visible;visibility:visible;opacity:1;isolation:auto;mix-blend-mode:normal;color-interpolation:sRGB;color-interpolation-filters:linearRGB;solid-color:#000000;solid-opacity:1;vector-effect:none;fill:#000000;fill-opacity:1;fill-rule:nonzero;stroke:none;stroke-width:0.352777;stroke-linecap:butt;stroke-linejoin:miter;stroke-miterlimit:4;stroke-dasharray:none;stroke-dashoffset:0;stroke-opacity:1;color-rendering:auto;image-rendering:auto;shape-rendering:auto;text-rendering:auto;enable-background:accumulate;stop-color:#000000;stop-opacity:1"
       d="m 103.31049,14.747937 -0.3514,0.01551 0.0641,1.472261 a 57.459604,57.459604 0 0 1 0.3514,-0.01499 z m 4.78937,-1e-6 -0.0641,1.472779 a 57.459604,57.459604 0 0 1 0.3514,0.0155 l 0.0641,-1.472778 z m -7.35562,0.160198 -0.35192,0.03152 0.12868,1.46761 a 57.459604,57.459604 0 0 1 0.35191,-0.03049 z m 9.92187,0 -0.12868,1.468643 a 57.459604,57.459604 0 0 1 0.3514,0.03101 l 0.12866,-1.468128 z m -15.021822,0.65629 -0.347264,0.06046 0.256314,1.452624 a 57.459604,57.459604 0 0 1 0.34675,-0.06149 z m 20.121252,10e-7 -0.25579,1.451591 a 57.459604,57.459604 0 0 1 0.34726,0.06097 l 0.25631,-1.452108 z m -22.644611,0.494026 -0.343647,0.07648 0.318844,1.439189 a 57.459604,57.459604 0 0 1 0.344165,-0.07648 z m 25.167971,0 -0.31884,1.439189 a 57.459604,57.459604 0 0 1 0.34364,0.07596 l 0.31885,-1.438673 z m -30.136659,1.316716 -0.337965,0.10542 0.443386,1.405599 a 57.459604,57.459604 0 0 1 0.337446,-0.106453 z m 35.105359,0 -0.44287,1.404565 a 57.459604,57.459604 0 0 1 0.33745,0.106451 l 0.44338,-1.4056 z m -37.542936,0.818038 -0.331763,0.121439 0.503845,1.384411 a 57.459604,57.459604 0 0 1 0.33228,-0.120922 z m 39.980506,-10e-7 -0.50437,1.384929 a 57.459604,57.459604 0 0 1 0.33281,0.120923 l 0.50384,-1.384411 z m -44.736288,1.95337 -0.320395,0.150379 0.622703,1.335319 a 57.459604,57.459604 0 0 1 0.320392,-0.149863 z m 49.492078,0 -0.62272,1.335835 a 57.459604,57.459604 0 0 1 0.3204,0.149345 l 0.6227,-1.334802 z m -51.802531,1.13068 -0.312642,0.162264 0.681093,1.30793 a 57.459604,57.459604 0 0 1 0.312126,-0.162781 z m 54.113491,0 -0.68057,1.307931 a 57.459604,57.459604 0 0 1 0.31212,0.162263 l 0.68057,-1.30793 z m -58.572651,2.556949 -0.296622,0.189137 0.7922,1.243335 a 57.459604,57.459604 0 0 1 0.296622,-0.189136 z m 63.031301,1e-6 -0.79169,1.242818 a 57.459604,57.459604 0 0 1 0.29714,0.189136 l 0.79168,-1.242818 z m -65.173807,1.421619 -0.28887,0.203088 0.845426,1.207678 A 57.459604,57.459604 0 0 1 72.892191,26.4635 Z m 67.316307,0 -0.84595,1.207677 a 57.459604,57.459604 0 0 1 0.28991,0.203089 l 0.84542,-1.207678 z m -71.403911,3.119189 -0.269752,0.226343 0.946713,1.128095 a 57.459604,57.459604 0 0 1 0.269751,-0.226343 z m 75.492031,0 -0.94671,1.128614 a 57.459604,57.459604 0 0 1 0.26974,0.225825 l 0.94672,-1.128096 z m -77.429896,1.689303 -0.261484,0.238229 0.995805,1.086755 a 57.459604,57.459604 0 0 1 0.260966,-0.239263 z m 79.367246,1e-6 -0.99529,1.08572 a 57.459604,57.459604 0 0 1 0.26148,0.239263 l 0.9958,-1.086756 z m -83.013535,3.623034 -0.238229,0.261998 1.085721,0.994773 a 57.459604,57.459604 0 0 1 0.239262,-0.260966 z m 86.660335,0 -1.08675,0.995805 a 57.459604,57.459604 0 0 1 0.23927,0.260967 l 1.08571,-0.994774 z m -88.361524,1.929596 -0.226344,0.269753 1.128096,0.946711 a 57.459604,57.459604 0 0 1 0.226343,-0.269751 z m 90.062714,0 -1.1286,0.946714 a 57.459604,57.459604 0 0 1 0.22633,0.26975 l 1.12861,-0.946711 z m -93.205157,4.068487 -0.203089,0.289388 1.207677,0.845426 a 57.459604,57.459604 0 0 1 0.203088,-0.289388 z m 96.347607,10e-7 -1.20768,0.845425 a 57.459604,57.459604 0 0 1 0.20308,0.289388 l 1.20768,-0.845426 z m -97.783181,2.134753 -0.189651,0.297137 1.243335,0.7922 a 57.459604,57.459604 0 0 1 0.189135,-0.297656 z m 99.218751,0 -1.24334,0.792199 a 57.459604,57.459604 0 0 1 0.18914,0.296622 l 1.24334,-0.791684 z m -101.803087,4.443655 -0.161748,0.312127 1.30793,0.680577 a 57.459604,57.459604 0 0 1 0.162264,-0.311608 z m 104.386907,0 -1.30793,0.681096 a 57.459604,57.459604 0 0 1 0.16227,0.311608 l 1.30792,-0.680577 z m -105.529473,2.302701 -0.150379,0.320394 1.335836,0.623219 a 57.459604,57.459604 0 0 1 0.14986,-0.320911 z m 106.672033,0 -1.3348,0.622702 a 57.459604,57.459604 0 0 1 0.14935,0.320395 l 1.33583,-0.622703 z m -108.654342,4.743897 -0.120923,0.33228 1.384927,0.504361 a 57.459604,57.459604 0 0 1 0.120925,-0.332279 z m 110.636662,0 -1.38442,0.503846 a 57.459604,57.459604 0 0 1 0.12092,0.332279 l 1.38494,-0.503845 z m -111.470719,2.431894 -0.105422,0.337963 1.405084,0.442867 a 57.459604,57.459604 0 0 1 0.106451,-0.337447 z m 112.304769,0 -1.4056,0.443383 a 57.459604,57.459604 0 0 1 0.10646,0.337447 l 1.40456,-0.442867 z m -113.650424,4.962488 -0.07597,0.344165 1.439189,0.318844 a 57.459604,57.459604 0 0 1 0.07596,-0.34365 z m 114.996074,-10e-7 -1.43919,0.318842 a 57.459604,57.459604 0 0 1 0.0765,0.344167 l 1.43919,-0.318845 z m -115.505603,2.519742 -0.06046,0.347784 1.451591,0.255797 a 57.459604,57.459604 0 0 1 0.06098,-0.347266 z m 116.015653,0 -1.45263,0.256315 a 57.459604,57.459604 0 0 1 0.0615,0.347266 l 1.45159,-0.255796 z m -116.7014,5.095814 -0.03101,0.351401 1.468644,0.128674 a 57.459604,57.459604 0 0 1 0.03101,-0.351398 z m 117.38663,0 -1.46813,0.128675 a 57.459604,57.459604 0 0 1 0.0305,0.351399 l 1.46917,-0.128673 z m -117.562329,2.566252 -0.0155,0.351398 1.472263,0.06408 a 57.459604,57.459604 0 0 1 0.0155,-0.351398 z m 117.738549,0 -1.47226,0.06408 a 57.459604,57.459604 0 0 1 0.015,0.351399 l 1.47278,-0.06408 z m -116.281274,5.076692 -1.47278,0.06408 0.01551,0.351399 1.47226,-0.06408 a 57.459604,57.459604 0 0 1 -0.01499,-0.351399 z m 114.823994,1e-6 a 57.459604,57.459604 0 0 1 -0.0155,0.351398 l 1.47278,0.06408 0.0155,-0.351398 z m -114.667932,2.501656 -1.468645,0.128674 0.03101,0.351915 1.468128,-0.128675 a 57.459604,57.459604 0 0 1 -0.03049,-0.351913 z m 114.511872,0 a 57.459604,57.459604 0 0 1 -0.031,0.351916 l 1.46813,0.128671 0.0316,-0.351911 z m -113.872634,4.972823 -1.451592,0.255799 0.06046,0.347265 1.452108,-0.256315 a 57.459604,57.459604 0 0 1 -0.06098,-0.34675 z m 113.233394,-10e-7 a 57.459604,57.459604 0 0 1 -0.061,0.34675 l 1.45211,0.256315 0.0605,-0.347263 z m -112.75177,2.460315 -1.439188,0.318845 0.07596,0.343646 1.439187,-0.318844 A 57.459604,57.459604 0 0 1 49.5701,85.898115 Z m 112.27015,10e-7 a 57.459604,57.459604 0 0 1 -0.076,0.343646 l 1.43867,0.318844 0.0765,-0.343647 z m -110.988056,4.844664 -1.405083,0.442867 0.10542,0.335896 1.405599,-0.443383 a 57.459604,57.459604 0 0 1 -0.105936,-0.33538 z m 109.705966,0 a 57.459604,57.459604 0 0 1 -0.10596,0.335898 l 1.40509,0.442865 0.10546,-0.335895 z m -108.907568,2.376082 -1.384927,0.504362 0.120923,0.331763 1.38493,-0.504361 a 57.459604,57.459604 0 0 1 -0.120926,-0.331764 z m 108.108638,-10e-7 a 57.459604,57.459604 0 0 1 -0.12039,0.332281 l 1.38441,0.503846 0.12143,-0.331764 z m -106.20436,4.636925 -1.336353,0.623222 0.150379,0.320394 1.335318,-0.622707 A 57.459604,57.459604 0 0 1 53.55487,97.755786 Z m 104.30061,5.21e-4 a 57.459604,57.459604 0 0 1 -0.14935,0.320391 l 1.33481,0.622703 0.15038,-0.320394 z m -103.198353,2.252573 -1.307412,0.68058 0.161747,0.31264 1.307931,-0.6811 a 57.459604,57.459604 0 0 1 -0.162266,-0.31212 z m 102.096093,0 a 57.459604,57.459604 0 0 1 -0.16278,0.31213 l 1.30793,0.68109 0.16226,-0.31264 z m -99.603737,4.34754 -1.243335,0.7922 0.189651,0.29662 1.24282,-0.79168 a 57.459604,57.459604 0 0 1 -0.189136,-0.29714 z m 97.110867,0 a 57.459604,57.459604 0 0 1 -0.18862,0.29714 l 1.24281,0.79168 0.18914,-0.29662 z m -1.38597,2.08876 a 57.459604,57.459604 0 0 1 -0.20256,0.28939 l 1.20716,0.84542 0.20308,-0.28886 z m -94.338419,5.2e-4 -1.207677,0.84543 0.203088,0.28887 1.207161,-0.84543 a 57.459604,57.459604 0 0 1 -0.202572,-0.28887 z m 3.039607,3.98632 -1.128096,0.94671 0.226344,0.26975 1.128611,-0.94671 a 57.459604,57.459604 0 0 1 -0.226859,-0.26975 z m 88.259212,0 a 57.459604,57.459604 0 0 1 -0.22685,0.26975 l 1.12861,0.94671 0.22634,-0.26975 z m -1.64745,1.88929 a 57.459604,57.459604 0 0 1 -0.23874,0.26096 l 1.08676,0.9958 0.23822,-0.26147 z m -84.964833,5.2e-4 -1.085721,0.99476 0.238228,0.26148 1.086755,-0.9958 a 57.459604,57.459604 0 0 1 -0.239262,-0.26044 z m 3.533118,3.5543 -0.995805,1.08676 0.261483,0.23822 0.99477,-1.08572 a 57.459604,57.459604 0 0 1 -0.260448,-0.23926 z m 77.899115,0 a 57.459604,57.459604 0 0 1 -0.26097,0.23927 l 0.99478,1.08571 0.26199,-0.23823 z m -1.8805,1.65934 a 57.459604,57.459604 0 0 1 -0.26975,0.22633 l 0.94671,1.12861 0.26975,-0.22634 z m -74.13811,5.1e-4 -0.946714,1.1281 0.269754,0.22634 0.946711,-1.12862 a 57.459604,57.459604 0 0 1 -0.269751,-0.22582 z m 3.967199,3.06338 -0.845425,1.20715 0.288869,0.20309 0.845945,-1.20768 a 57.459604,57.459604 0 0 1 -0.289389,-0.20256 z m 66.203711,-1e-5 a 57.459604,57.459604 0 0 1 -0.28939,0.20257 l 0.84542,1.20768 0.2894,-0.20308 z m -64.122702,1.39992 -0.791681,1.24282 0.296622,0.18965 0.792199,-1.24333 a 57.459604,57.459604 0 0 1 -0.29714,-0.18914 z m 62.041702,0 a 57.459604,57.459604 0 0 1 -0.29767,0.18913 l 0.7922,1.24334 0.29714,-0.18965 z m -57.709149,2.5187 -0.681094,1.30845 0.312642,0.16175 0.680577,-1.30741 a 57.459604,57.459604 0 0 1 -0.312125,-0.16279 z m 53.376069,5.3e-4 a 57.459604,57.459604 0 0 1 -0.31161,0.16174 l 0.68058,1.30793 0.31212,-0.16174 z m -51.13176,1.11517 -0.622703,1.33532 0.320395,0.15038 0.623218,-1.33635 a 57.459604,57.459604 0 0 1 -0.32091,-0.14935 z m 48.88745,0 a 57.459604,57.459604 0 0 1 -0.3209,0.14935 l 0.62321,1.33635 0.32039,-0.15037 z m -44.261377,1.9327 -0.504362,1.38493 0.331763,0.12092 0.504363,-1.38545 a 57.459604,57.459604 0 0 1 -0.331764,-0.1204 z m 39.635827,0 a 57.459604,57.459604 0 0 1 -0.33177,0.12092 l 0.50385,1.38494 0.33228,-0.12093 z m -37.265428,0.81288 -0.443386,1.4061 0.337964,0.10545 0.442868,-1.40508 a 57.459604,57.459604 0 0 1 -0.337449,-0.10642 z m 34.894518,-1e-5 a 57.459604,57.459604 0 0 1 -0.33746,0.10646 l 0.44287,1.40508 0.33796,-0.10543 z m -30.056054,1.31259 -0.318844,1.43918 0.343647,0.076 0.318844,-1.43919 a 57.459604,57.459604 0 0 1 -0.343647,-0.076 z m 25.217584,-1e-5 a 57.459604,57.459604 0 0 1 -0.34365,0.076 l 0.31884,1.43919 0.34365,-0.076 z m -22.760372,0.49661 -0.256315,1.45211 0.347264,0.0605 0.255799,-1.4516 a 57.459604,57.459604 0 0 1 -0.34675,-0.061 z m 20.303672,1e-5 a 57.459604,57.459604 0 0 1 -0.34727,0.061 l 0.2558,1.45159 0.34779,-0.0605 z m -15.33601,0.6692 -0.12868,1.46865 0.35191,0.031 0.12868,-1.46865 a 57.459604,57.459604 0 0 1 -0.35191,-0.031 z m 10.36783,5.2e-4 a 57.459604,57.459604 0 0 1 -0.35139,0.0305 l 0.12867,1.46864 0.3514,-0.031 z m -7.86567,0.17157 -0.0641,1.47226 0.3514,0.0155 0.0641,-1.47227 a 57.459604,57.459604 0 0 1 -0.3514,-0.0155 z m 5.36402,0 a 57.459604,57.459604 0 0 1 -0.3514,0.015 l 0.0641,1.47278 0.3514,-0.0155 z" />
    <text
       xml:space="preserve"
       style="font-style:normal;font-weight:normal;font-size:10.5833px;line-height:1.25;font-family:sans-serif;fill:#000000;fill-opacity:1;stroke:none;stroke-width:0.264583"
       x="244.73465"
       y="9.6191683"
       id="text2949"><tspan
         sodipodi:role="line"
         id="tspan2947"
         x="244.73465"
         y="9.6191683"
         style="stroke-width:0.264583">15minute</tspan><tspan
         sodipodi:role="line"
         x="244.73465"
         y="22.848295"
         style="stroke-width:0.264583"
         id="tspan2951" /></text>
    <path
       id="path3974"
       style="color:#000000;font-style:normal;font-variant:normal;font-weight:normal;font-stretch:normal;font-size:medium;line-height:normal;font-family:sans-serif;font-variant-ligatures:normal;font-variant-position:normal;font-variant-caps:normal;font-variant-numeric:normal;font-variant-alternates:normal;font-variant-east-asian:normal;font-feature-settings:normal;font-variation-settings:normal;text-indent:0;text-align:start;text-decoration:none;text-decoration-line:none;text-decoration-style:solid;text-decoration-color:#000000;letter-spacing:normal;word-spacing:normal;text-transform:none;writing-mode:lr-tb;direction:ltr;text-orientation:mixed;dominant-baseline:auto;baseline-shift:baseline;text-anchor:start;white-space:normal;shape-padding:0;shape-margin:0;inline-size:0;clip-rule:nonzero;display:inline;overflow:visible;visibility:visible;opacity:1;isolation:auto;mix-blend-mode:normal;color-interpolation:sRGB;color-interpolation-filters:linearRGB;solid-color:#000000;solid-opacity:1;vector-effect:none;fill:#000000;fill-opacity:1;fill-rule:nonzero;stroke:none;stroke-width:1.33333;stroke-linecap:butt;stroke-linejoin:miter;stroke-miterlimit:4;stroke-dasharray:none;stroke-dashoffset:0;stroke-opacity:1;color-rendering:auto;image-rendering:auto;shape-rendering:auto;text-rendering:auto;enable-background:accumulate;stop-color:#000000;stop-opacity:1"
       d="M 1143.2266 65.876953 L 1141.9043 66.052734 L 1143.3574 77.09375 A 211.6017 211.6017 0 0 1 1144.6797 76.919922 L 1143.2266 65.876953 z M 1200.0508 65.876953 L 1198.5977 76.917969 A 211.6017 211.6017 0 0 1 1199.9199 77.09375 L 1201.373 66.052734 L 1200.0508 65.876953 z M 1087.0195 80.757812 L 1085.7871 81.267578 L 1090.0488 91.556641 A 211.6017 211.6017 0 0 1 1091.2812 91.046875 L 1087.0195 80.757812 z M 1256.2656 80.757812 L 1252.002 91.048828 A 211.6017 211.6017 0 0 1 1253.2285 91.558594 L 1257.4902 81.267578 L 1256.2656 80.757812 z M 1036.5723 109.67969 L 1035.5176 110.49219 L 1042.2969 119.32812 A 211.6017 211.6017 0 0 1 1043.3535 118.51758 L 1036.5723 109.67969 z M 1306.7051 109.67969 L 1299.9258 118.51562 A 211.6017 211.6017 0 0 1 1300.9824 119.32812 L 1307.7617 110.49219 L 1306.7051 109.67969 z M 995.33789 150.67188 L 994.52539 151.72656 L 1003.3613 158.50781 A 211.6017 211.6017 0 0 1 1004.1719 157.45117 L 995.33789 150.67188 z M 1347.9414 150.67188 L 1339.1055 157.45117 A 211.6017 211.6017 0 0 1 1339.916 158.50586 L 1348.752 151.72656 L 1347.9414 150.67188 z M 966.11133 200.94336 L 965.60352 202.17578 L 975.89062 206.4375 A 211.6017 211.6017 0 0 1 976.40039 205.20508 L 966.11133 200.94336 z M 1377.166 200.94336 L 1366.877 205.20508 A 211.6017 211.6017 0 0 1 1367.3867 206.4375 L 1377.6738 202.17578 L 1377.166 200.94336 z M 950.89062 257.05859 L 950.7207 258.38086 L 961.76172 259.83398 A 211.6017 211.6017 0 0 1 961.9375 258.51367 L 950.89062 257.05859 z M 1392.3867 257.05859 L 1381.3418 258.51172 A 211.6017 211.6017 0 0 1 1381.5156 259.83398 L 1392.5566 258.38086 L 1392.3867 257.05859 z M 961.76172 313.75391 L 950.7207 315.20703 L 950.89062 316.52734 L 961.93555 315.07227 A 211.6017 211.6017 0 0 1 961.76172 313.75391 z M 1381.5176 313.75391 A 211.6017 211.6017 0 0 1 1381.3418 315.07422 L 1392.3867 316.52734 L 1392.5566 315.20703 L 1381.5176 313.75391 z M 975.89258 367.1582 L 965.60352 371.41992 L 966.11133 372.65234 L 976.40234 368.38867 A 211.6017 211.6017 0 0 1 975.89258 367.1582 z M 1367.3867 367.1582 A 211.6017 211.6017 0 0 1 1366.875 368.39062 L 1377.166 372.65234 L 1377.6738 371.41992 L 1367.3867 367.1582 z M 1003.3594 415.08008 L 994.52539 421.85938 L 995.33789 422.91602 L 1004.1719 416.13867 A 211.6017 211.6017 0 0 1 1003.3594 415.08008 z M 1339.918 415.08008 A 211.6017 211.6017 0 0 1 1339.1074 416.13672 L 1347.9414 422.91602 L 1348.752 421.85938 L 1339.918 415.08008 z M 1042.2988 454.26367 L 1035.5176 463.10352 L 1036.5723 463.91406 L 1043.3555 455.07422 A 211.6017 211.6017 0 0 1 1042.2988 454.26367 z M 1300.9805 454.26562 A 211.6017 211.6017 0 0 1 1299.9238 455.07617 L 1306.7051 463.91406 L 1307.7617 463.10352 L 1300.9805 454.26562 z M 1090.0508 482.03516 L 1085.7871 492.32812 L 1087.0195 492.83789 L 1091.2832 482.54492 A 211.6017 211.6017 0 0 1 1090.0508 482.03516 z M 1253.2266 482.03516 A 211.6017 211.6017 0 0 1 1252.002 482.54297 L 1256.2656 492.83789 L 1257.4902 492.32812 L 1253.2266 482.03516 z M 1143.3574 496.49805 L 1141.9043 507.54102 L 1143.2266 507.71875 L 1144.6816 496.67383 A 211.6017 211.6017 0 0 1 1143.3574 496.49805 z M 1199.9199 496.49805 A 211.6017 211.6017 0 0 1 1198.5957 496.67383 L 1200.0508 507.71875 L 1201.373 507.54102 L 1199.9199 496.49805 z "
       transform="scale(0.26458333)" />
    <text
       xml:space="preserve"
       style="font-style:normal;font-weight:normal;font-size:10.5833px;line-height:1.25;font-family:sans-serif;fill:#000000;fill-opacity:1;stroke:none;stroke-width:0.264583"
       x="38.867126"
       y="157.23589"
       id="text2979"><tspan
         sodipodi:role="line"
         id="tspan2977"
         x="38.867126"
         y="157.23589"
         style="stroke-width:0.264583">30minute</tspan></text>
    <text
       xml:space="preserve"
       style="font-style:normal;font-weight:normal;font-size:10.5833px;line-height:1.25;font-family:sans-serif;fill:#000000;fill-opacity:1;stroke:none;stroke-width:0.264583"
       x="80.130951"
       y="334.31995"
       id="text2983"><tspan
         sodipodi:role="line"
         id="tspan2981"
         x="80.130951"
         y="334.31995"
         style="stroke-width:0.264583" /></text>
    <path
       id="path3922"
       style="color:#000000;font-style:normal;font-variant:normal;font-weight:normal;font-stretch:normal;font-size:medium;line-height:normal;font-family:sans-serif;font-variant-ligatures:normal;font-variant-position:normal;font-variant-caps:normal;font-variant-numeric:normal;font-variant-alternates:normal;font-variant-east-asian:normal;font-feature-settings:normal;font-variation-settings:normal;text-indent:0;text-align:start;text-decoration:none;text-decoration-line:none;text-decoration-style:solid;text-decoration-color:#000000;letter-spacing:normal;word-spacing:normal;text-transform:none;writing-mode:lr-tb;direction:ltr;text-orientation:mixed;dominant-baseline:auto;baseline-shift:baseline;text-anchor:start;white-space:normal;shape-padding:0;shape-margin:0;inline-size:0;clip-rule:nonzero;display:inline;overflow:visible;visibility:visible;opacity:1;isolation:auto;mix-blend-mode:normal;color-interpolation:sRGB;color-interpolation-filters:linearRGB;solid-color:#000000;solid-opacity:1;vector-effect:none;fill:#000000;fill-opacity:1;fill-rule:nonzero;stroke:none;stroke-width:2.66667;stroke-linecap:butt;stroke-linejoin:miter;stroke-miterlimit:4;stroke-dasharray:none;stroke-dashoffset:0;stroke-opacity:1;color-rendering:auto;image-rendering:auto;shape-rendering:auto;text-rendering:auto;enable-background:accumulate;stop-color:#000000;stop-opacity:1"
       d="M 318.06445 646.76367 L 315.48633 647.45117 L 319.8125 663.59375 A 206.03323 206.03323 0 0 1 322.38867 662.9043 L 318.06445 646.76367 z M 430.78516 646.76367 L 426.46094 662.9043 A 206.03323 206.03323 0 0 1 429.03516 663.59375 L 433.36133 647.45117 L 430.78516 646.76367 z M 217.86914 703.8125 L 215.97852 705.70117 L 227.79688 717.51953 A 206.03323 206.03323 0 0 1 229.68555 715.62891 L 217.86914 703.8125 z M 530.97852 703.8125 L 519.16406 715.62695 A 206.03323 206.03323 0 0 1 521.05273 717.51758 L 532.86914 705.70117 L 530.97852 703.8125 z M 159.61914 803.32031 L 158.93164 805.89648 L 175.07227 810.2207 A 206.03323 206.03323 0 0 1 175.76172 807.64648 L 159.61914 803.32031 z M 589.23047 803.32031 L 573.08789 807.64648 A 206.03323 206.03323 0 0 1 573.77734 810.2207 L 589.91602 805.89648 L 589.23047 803.32031 z M 175.07227 914.29297 L 158.93164 918.61719 L 159.61914 921.19336 L 175.76172 916.86719 A 206.03323 206.03323 0 0 1 175.07227 914.29297 z M 573.7793 914.29297 A 206.03323 206.03323 0 0 1 573.08789 916.86719 L 589.23047 921.19336 L 589.91602 918.61719 L 573.7793 914.29297 z M 227.79492 1006.9961 L 215.97852 1018.8125 L 217.86914 1020.7012 L 229.68555 1008.8848 A 206.03323 206.03323 0 0 1 227.79492 1006.9961 z M 521.05469 1006.998 A 206.03323 206.03323 0 0 1 519.16406 1008.8867 L 530.97852 1020.7012 L 532.86914 1018.8125 L 521.05469 1006.998 z M 319.8125 1060.9199 L 315.48633 1077.0625 L 318.06445 1077.748 L 322.38867 1061.6113 A 206.03323 206.03323 0 0 1 319.8125 1060.9199 z M 429.03516 1060.9199 A 206.03323 206.03323 0 0 1 426.46094 1061.6094 L 430.78516 1077.748 L 433.36133 1077.0625 L 429.03516 1060.9199 z "
       transform="scale(0.26458333)" />
    <text
       xml:space="preserve"
       style="font-style:normal;font-weight:normal;font-size:10.5833px;line-height:1.25;font-family:sans-serif;fill:#000000;fill-opacity:1;stroke:none;stroke-width:0.264583"
       x="265.33926"
       y="154.59225"
       id="text3003"><tspan
         sodipodi:role="line"
         id="tspan3001"
         x="265.33926"
         y="154.59225"
         style="stroke-width:0.264583">60minute</tspan></text>
    <path
       id="path3889"
       style="color:#000000;font-style:normal;font-variant:normal;font-weight:normal;font-stretch:normal;font-size:medium;line-height:normal;font-family:sans-serif;font-variant-ligatures:normal;font-variant-position:normal;font-variant-caps:normal;font-variant-numeric:normal;font-variant-alternates:normal;font-variant-east-asian:normal;font-feature-settings:normal;font-variation-settings:normal;text-indent:0;text-align:start;text-decoration:none;text-decoration-line:none;text-decoration-style:solid;text-decoration-color:#000000;letter-spacing:normal;word-spacing:normal;text-transform:none;writing-mode:lr-tb;direction:ltr;text-orientation:mixed;dominant-baseline:auto;baseline-shift:baseline;text-anchor:start;white-space:normal;shape-padding:0;shape-margin:0;inline-size:0;clip-rule:nonzero;display:inline;overflow:visible;visibility:visible;opacity:1;isolation:auto;mix-blend-mode:normal;color-interpolation:sRGB;color-interpolation-filters:linearRGB;solid-color:#000000;solid-opacity:1;vector-effect:none;fill:#000000;fill-opacity:1;fill-rule:nonzero;stroke:none;stroke-width:3.99999;stroke-linecap:butt;stroke-linejoin:miter;stroke-miterlimit:4;stroke-dasharray:none;stroke-dashoffset:0;stroke-opacity:1;color-rendering:auto;image-rendering:auto;shape-rendering:auto;text-rendering:auto;enable-background:accumulate;stop-color:#000000;stop-opacity:1"
       d="M 1147.5156 619.8418 L 1147.5156 642.12891 A 200.46478 200.46478 0 0 1 1149.5156 642.11719 A 200.46478 200.46478 0 0 1 1151.5156 642.12891 L 1151.5156 619.8418 L 1147.5156 619.8418 z M 1039.8789 648.68359 L 1036.418 650.68359 L 1047.5605 669.98242 A 200.46478 200.46478 0 0 1 1051.0215 667.98242 L 1039.8789 648.68359 z M 1259.1504 648.68359 L 1248.0078 667.98438 A 200.46478 200.46478 0 0 1 1251.4727 669.98242 L 1262.6133 650.68359 L 1259.1504 648.68359 z M 957.61523 729.47852 L 955.61523 732.94727 L 974.91602 744.08984 A 200.46478 200.46478 0 0 1 976.91797 740.62305 L 957.61523 729.47852 z M 1341.4141 729.47852 L 1322.1133 740.62305 A 200.46478 200.46478 0 0 1 1324.1152 744.08984 L 1343.416 732.94727 L 1341.4141 729.47852 z M 926.77344 840.58398 L 926.77344 844.58398 L 949.06055 844.58398 A 200.46478 200.46478 0 0 1 949.05078 842.58203 A 200.46478 200.46478 0 0 1 949.06055 840.58398 L 926.77344 840.58398 z M 1349.9707 840.58398 A 200.46478 200.46478 0 0 1 1349.9805 842.58203 A 200.46478 200.46478 0 0 1 1349.9707 844.58398 L 1372.2559 844.58398 L 1372.2559 840.58398 L 1349.9707 840.58398 z M 1324.1152 941.07422 A 200.46478 200.46478 0 0 1 1322.1152 944.53906 L 1341.4141 955.68164 L 1343.416 952.21875 L 1324.1152 941.07422 z M 974.91602 941.07617 L 955.61523 952.21875 L 957.61523 955.68164 L 976.91602 944.53906 A 200.46478 200.46478 0 0 1 974.91602 941.07617 z M 1047.5586 1015.1836 L 1036.418 1034.4824 L 1039.8789 1036.4844 L 1051.0234 1017.1816 A 200.46478 200.46478 0 0 1 1047.5586 1015.1836 z M 1251.4707 1015.1836 A 200.46478 200.46478 0 0 1 1248.0117 1017.1816 L 1259.1504 1036.4766 L 1262.6133 1034.4824 L 1251.4707 1015.1836 z M 1147.5156 1043.0371 L 1147.5156 1065.3242 L 1151.5156 1065.3242 L 1151.5156 1043.0371 A 200.46478 200.46478 0 0 1 1149.5156 1043.0469 A 200.46478 200.46478 0 0 1 1147.5156 1043.0371 z "
       transform="scale(0.26458333)" />
    <path
       d="m 365.43679,-145.48293 -0.3514,0.0155 0.0641,1.47226 a 57.459605,57.459605 0 0 1 0.3514,-0.015 z m 4.78938,0 -0.0641,1.47278 a 57.459605,57.459605 0 0 1 0.35139,0.0155 l 0.0641,-1.47278 z m -7.35563,0.1602 -0.35191,0.0315 0.12867,1.46761 a 57.459605,57.459605 0 0 1 0.35192,-0.0305 z m 9.92187,0 -0.12867,1.46864 a 57.459605,57.459605 0 0 1 0.3514,0.031 l 0.12868,-1.46812 z m -15.02182,0.65629 -0.34726,0.0605 0.25631,1.45262 a 57.459605,57.459605 0 0 1 0.34675,-0.0615 z m 20.12126,0 -0.2558,1.45159 a 57.459605,57.459605 0 0 1 0.34726,0.061 l 0.25632,-1.45211 z m -22.64462,0.49403 -0.34364,0.0765 0.31884,1.43918 a 57.459605,57.459605 0 0 1 0.34417,-0.0765 z m 25.16798,0 -0.31885,1.43918 a 57.459605,57.459605 0 0 1 0.34365,0.076 l 0.31884,-1.43867 z m -30.13666,1.31671 -0.33797,0.10542 0.44339,1.4056 a 57.459605,57.459605 0 0 1 0.33744,-0.10645 z m 35.10535,0 -0.44287,1.40457 a 57.459605,57.459605 0 0 1 0.33745,0.10645 l 0.44338,-1.4056 z m -37.54293,0.81804 -0.33176,0.12144 0.50384,1.38441 a 57.459605,57.459605 0 0 1 0.33228,-0.12092 z m 39.9805,0 -0.50436,1.38493 a 57.459605,57.459605 0 0 1 0.3328,0.12092 l 0.50384,-1.38441 z m -44.73628,1.95337 -0.3204,0.15038 0.6227,1.33532 a 57.459605,57.459605 0 0 1 0.3204,-0.14987 z m 49.49207,0 -0.62271,1.33583 a 57.459605,57.459605 0 0 1 0.3204,0.14935 l 0.6227,-1.3348 z m -51.80253,1.13068 -0.31264,0.16226 0.68109,1.30793 a 57.459605,57.459605 0 0 1 0.31213,-0.16278 z m 54.11349,0 -0.68057,1.30793 a 57.459605,57.459605 0 0 1 0.31212,0.16226 l 0.68058,-1.30793 z m -58.57265,2.55695 -0.29662,0.18913 0.7922,1.24334 a 57.459605,57.459605 0 0 1 0.29662,-0.18914 z m 63.0313,0 -0.79169,1.24282 a 57.459605,57.459605 0 0 1 0.29715,0.18913 l 0.79168,-1.24282 z m -65.1738,1.42162 -0.28887,0.20309 0.84542,1.20767 a 57.459605,57.459605 0 0 1 0.28888,-0.20309 z m 67.3163,0 -0.84594,1.20767 a 57.459605,57.459605 0 0 1 0.2899,0.20309 l 0.84543,-1.20767 z m -71.40391,3.11919 -0.26975,0.22634 0.94671,1.12809 a 57.459605,57.459605 0 0 1 0.26976,-0.22634 z m 75.49203,0 -0.94671,1.12861 a 57.459605,57.459605 0 0 1 0.26975,0.22582 l 0.94671,-1.12809 z m -77.42989,1.6893 -0.26148,0.23823 0.9958,1.08675 a 57.459605,57.459605 0 0 1 0.26097,-0.23926 z m 79.36724,0 -0.99529,1.08572 a 57.459605,57.459605 0 0 1 0.26148,0.23926 l 0.99581,-1.08675 z m -83.01353,3.62303 -0.23823,0.262 1.08572,0.99477 a 57.459605,57.459605 0 0 1 0.23926,-0.26096 z m 86.66033,0 -1.08675,0.99581 a 57.459605,57.459605 0 0 1 0.23926,0.26096 l 1.08572,-0.99477 z m -88.36152,1.9296 -0.22634,0.26975 1.12809,0.94671 a 57.459605,57.459605 0 0 1 0.22635,-0.26975 z m 90.06271,0 -1.12861,0.94671 a 57.459605,57.459605 0 0 1 0.22634,0.26975 l 1.12862,-0.94671 z m -93.20515,4.06849 -0.20309,0.28938 1.20768,0.84543 a 57.459605,57.459605 0 0 1 0.20309,-0.28939 z m 96.3476,0 -1.20768,0.84542 a 57.459605,57.459605 0 0 1 0.20309,0.28939 l 1.20768,-0.84543 z m -97.78318,2.13475 -0.18965,0.29714 1.24334,0.7922 a 57.459605,57.459605 0 0 1 0.18913,-0.29766 z m 99.21875,0 -1.24333,0.7922 a 57.459605,57.459605 0 0 1 0.18913,0.29662 l 1.24334,-0.79168 z m -101.80308,4.44366 -0.16175,0.31212 1.30793,0.68058 a 57.459605,57.459605 0 0 1 0.16226,-0.31161 z m 104.3869,0 -1.30793,0.68109 a 57.459605,57.459605 0 0 1 0.16226,0.31161 l 1.30793,-0.68058 z m -105.52947,2.3027 -0.15038,0.32039 1.33584,0.62322 a 57.459605,57.459605 0 0 1 0.14986,-0.32091 z m 106.67204,0 -1.3348,0.6227 a 57.459605,57.459605 0 0 1 0.14934,0.32039 l 1.33584,-0.6227 z m -108.65435,4.74389 -0.12092,0.33228 1.38493,0.50437 a 57.459605,57.459605 0 0 1 0.12092,-0.33228 z m 110.63666,0 -1.38442,0.50385 a 57.459605,57.459605 0 0 1 0.12093,0.33228 l 1.38492,-0.50385 z m -111.47071,2.4319 -0.10542,0.33796 1.40508,0.44287 a 57.459605,57.459605 0 0 1 0.10645,-0.33745 z m 112.30476,0 -1.4056,0.44338 a 57.459605,57.459605 0 0 1 0.10646,0.33745 l 1.40456,-0.44287 z m -113.65042,4.962492 -0.076,0.34416 1.43919,0.31884 a 57.459605,57.459605 0 0 1 0.076,-0.34364 z m 114.99608,0 -1.43919,0.31884 a 57.459605,57.459605 0 0 1 0.0765,0.34416 l 1.43919,-0.31884 z m -115.50561,2.51974 -0.0605,0.34778 1.45159,0.2558 a 57.459605,57.459605 0 0 1 0.061,-0.34727 z m 116.01565,0 -1.45262,0.25631 a 57.459605,57.459605 0 0 1 0.0615,0.34727 l 1.45159,-0.2558 z m -116.70139,5.09581 -0.031,0.3514 1.46864,0.12867 a 57.459605,57.459605 0 0 1 0.031,-0.35139 z m 117.38662,0 -1.46812,0.12868 a 57.459605,57.459605 0 0 1 0.0305,0.35139 l 1.46917,-0.12867 z m -117.56232,2.56625 -0.0155,0.3514 1.47227,0.0641 a 57.459605,57.459605 0 0 1 0.0155,-0.3514 z m 117.73854,0 -1.47226,0.0641 a 57.459605,57.459605 0 0 1 0.015,0.3514 l 1.47278,-0.0641 z m -116.28127,5.0767 -1.47278,0.0641 0.0155,0.35139 1.47226,-0.0641 a 57.459605,57.459605 0 0 1 -0.015,-0.35139 z m 114.82399,0 a 57.459605,57.459605 0 0 1 -0.0155,0.35139 l 1.47278,0.0641 0.0155,-0.3514 z m -114.66793,2.50165 -1.46864,0.12868 0.031,0.35191 1.46812,-0.12867 a 57.459605,57.459605 0 0 1 -0.0305,-0.35192 z m 114.51187,0 a 57.459605,57.459605 0 0 1 -0.031,0.35192 l 1.46812,0.12867 0.0315,-0.35191 z m -113.87263,4.97282 -1.45159,0.2558 0.0605,0.34727 1.45211,-0.25632 a 57.459605,57.459605 0 0 1 -0.061,-0.34675 z m 113.23339,0 a 57.459605,57.459605 0 0 1 -0.061,0.34675 l 1.45211,0.25632 0.0605,-0.34727 z m -112.75176,2.46032 -1.43919,0.31885 0.076,0.34365 1.43919,-0.31884 a 57.459605,57.459605 0 0 1 -0.076,-0.34366 z m 112.27014,0 a 57.459605,57.459605 0 0 1 -0.076,0.34366 l 1.43867,0.31884 0.0765,-0.34365 z m -110.98805,4.84466 -1.40508,0.44287 0.10542,0.3359 1.4056,-0.44339 a 57.459605,57.459605 0 0 1 -0.10594,-0.33538 z m 109.70596,0 a 57.459605,57.459605 0 0 1 -0.10594,0.3359 l 1.40508,0.44287 0.10542,-0.3359 z m -108.90756,2.37609 -1.38493,0.50436 0.12092,0.33176 1.38493,-0.50436 a 57.459605,57.459605 0 0 1 -0.12092,-0.33176 z m 108.10864,0 a 57.459605,57.459605 0 0 1 -0.12041,0.33228 l 1.38442,0.50384 0.12143,-0.33175 z m -106.20436,4.63692 -1.33636,0.62322 0.15038,0.32039 1.33532,-0.6227 a 57.459605,57.459605 0 0 1 -0.14934,-0.32091 z m 104.3006,5.3e-4 a 57.459605,57.459605 0 0 1 -0.14935,0.32039 l 1.33481,0.6227 0.15038,-0.32039 z m -103.19835,2.25257 -1.30741,0.68058 0.16175,0.31264 1.30793,-0.68109 a 57.459605,57.459605 0 0 1 -0.16227,-0.31213 z m 102.09609,0 a 57.459605,57.459605 0 0 1 -0.16278,0.31213 l 1.30793,0.68109 0.16226,-0.31264 z m -99.60373,4.34754 -1.24334,0.7922 0.18965,0.29662 1.24282,-0.79168 a 57.459605,57.459605 0 0 1 -0.18913,-0.29714 z m 97.11086,0 a 57.459605,57.459605 0 0 1 -0.18862,0.29714 l 1.24282,0.79168 0.18914,-0.29662 z m -1.38596,2.08876 a 57.459605,57.459605 0 0 1 -0.20257,0.28939 l 1.20716,0.84543 0.20309,-0.28887 z m -94.33842,5.3e-4 -1.20768,0.84543 0.20309,0.28887 1.20716,-0.84543 a 57.459605,57.459605 0 0 1 -0.20257,-0.28887 z m 3.0396,3.98632 -1.12809,0.94671 0.22634,0.26976 1.12861,-0.94672 a 57.459605,57.459605 0 0 1 -0.22686,-0.26975 z m 88.25921,0 a 57.459605,57.459605 0 0 1 -0.22686,0.26975 l 1.12861,0.94672 0.22635,-0.26976 z m -1.64745,1.88929 a 57.459605,57.459605 0 0 1 -0.23874,0.26097 l 1.08675,0.9958 0.23823,-0.26148 z m -84.96483,5.3e-4 -1.08572,0.99477 0.23823,0.26148 1.08675,-0.9958 a 57.459605,57.459605 0 0 1 -0.23926,-0.26045 z m 3.53312,3.55431 -0.9958,1.08675 0.26148,0.23823 0.99477,-1.08572 a 57.459605,57.459605 0 0 1 -0.26045,-0.23926 z m 77.89911,0 a 57.459605,57.459605 0 0 1 -0.26096,0.23926 l 0.99477,1.08572 0.262,-0.23823 z m -1.8805,1.65933 a 57.459605,57.459605 0 0 1 -0.26975,0.22634 l 0.94671,1.12861 0.26975,-0.22634 z m -74.13811,5.3e-4 -0.94671,1.12809 0.26975,0.22635 0.94672,-1.12862 a 57.459605,57.459605 0 0 1 -0.26976,-0.22582 z m 3.9672,3.06337 -0.84542,1.20718 0.28887,0.20308 0.84594,-1.20768 a 57.459605,57.459605 0 0 1 -0.28939,-0.20258 z m 66.20371,0 a 57.459605,57.459605 0 0 1 -0.28938,0.20258 l 0.84542,1.20768 0.28939,-0.20308 z m -64.1227,1.39992 -0.79168,1.24282 0.29662,0.18966 0.7922,-1.24335 a 57.459605,57.459605 0 0 1 -0.29714,-0.18913 z m 62.0417,0 a 57.459605,57.459605 0 0 1 -0.29766,0.18913 l 0.7922,1.24335 0.29714,-0.18966 z m -57.70915,2.51871 -0.68109,1.30845 0.31264,0.16174 0.68058,-1.30741 a 57.459605,57.459605 0 0 1 -0.31213,-0.16278 z m 53.37607,5.4e-4 a 57.459605,57.459605 0 0 1 -0.3116,0.16175 l 0.68057,1.30793 0.31213,-0.16175 z m -51.13176,1.11518 -0.6227,1.33532 0.3204,0.15037 0.62322,-1.33636 a 57.459605,57.459605 0 0 1 -0.32092,-0.14933 z m 48.88746,0 a 57.459605,57.459605 0 0 1 -0.32091,0.14934 l 0.62322,1.33635 0.32039,-0.15037 z m -44.26138,1.93269 -0.50436,1.38493 0.33176,0.12093 0.50436,-1.38545 a 57.459605,57.459605 0 0 1 -0.33176,-0.12041 z m 39.63582,0 a 57.459605,57.459605 0 0 1 -0.33176,0.12093 l 0.50384,1.38493 0.33228,-0.12093 z m -37.26542,0.81287 -0.44339,1.40611 0.33797,0.10542 0.44286,-1.40508 a 57.459605,57.459605 0 0 1 -0.33744,-0.10645 z m 34.89451,0 a 57.459605,57.459605 0 0 1 -0.33745,0.10645 l 0.44287,1.40508 0.33796,-0.10542 z m -30.05605,1.31258 -0.31884,1.4392 0.34364,0.076 0.31885,-1.43919 a 57.459605,57.459605 0 0 1 -0.34365,-0.076 z m 25.21758,0 a 57.459605,57.459605 0 0 1 -0.34365,0.076 l 0.31885,1.43919 0.34364,-0.076 z m -22.76037,0.49662 -0.25631,1.45209 0.34726,0.0605 0.2558,-1.45159 a 57.459605,57.459605 0 0 1 -0.34675,-0.061 z m 20.30367,0 a 57.459605,57.459605 0 0 1 -0.34726,0.061 l 0.2558,1.45159 0.34778,-0.0605 z m -15.33601,0.66921 -0.12867,1.46864 0.35191,0.031 0.12868,-1.46865 a 57.459605,57.459605 0 0 1 -0.35192,-0.031 z m 10.36784,5.3e-4 a 57.459605,57.459605 0 0 1 -0.3514,0.0305 l 0.12867,1.46864 0.35141,-0.031 z m -7.86567,0.17156 -0.0641,1.47226 0.3514,0.0155 0.0641,-1.47226 a 57.459605,57.459605 0 0 1 -0.3514,-0.0155 z m 5.36401,0 a 57.459605,57.459605 0 0 1 -0.35139,0.015 l 0.0641,1.47277 0.35139,-0.0155 z"
       style="color:#000000;font-style:normal;font-variant:normal;font-weight:normal;font-stretch:normal;font-size:medium;line-height:normal;font-family:sans-serif;font-variant-ligatures:normal;font-variant-position:normal;font-variant-caps:normal;font-variant-numeric:normal;font-variant-alternates:normal;font-variant-east-asian:normal;font-feature-settings:normal;font-variation-settings:normal;text-indent:0;text-align:start;text-decoration:none;text-decoration-line:none;text-decoration-style:solid;text-decoration-color:#000000;letter-spacing:normal;word-spacing:normal;text-transform:none;writing-mode:lr-tb;direction:ltr;text-orientation:mixed;dominant-baseline:auto;baseline-shift:baseline;text-anchor:start;white-space:normal;shape-padding:0;shape-margin:0;inline-size:0;clip-rule:nonzero;display:inline;overflow:visible;visibility:visible;opacity:1;isolation:auto;mix-blend-mode:normal;color-interpolation:sRGB;color-interpolation-filters:linearRGB;solid-color:#000000;solid-opacity:1;vector-effect:none;fill:#000000;fill-opacity:1;fill-rule:nonzero;stroke:none;stroke-width:0.352777;stroke-linecap:butt;stroke-linejoin:miter;stroke-miterlimit:4;stroke-dasharray:none;stroke-dashoffset:0;stroke-opacity:1;color-rendering:auto;image-rendering:auto;shape-rendering:auto;text-rendering:auto;enable-background:accumulate;stop-color:#000000;stop-opacity:1"
       id="path4073-7" />
    <path
       d="m 360.31414,-145.05009 -0.34986,0.0465 0.38447,2.92127 a 55.986283,55.986283 0 0 1 0.34986,-0.046 z m 15.03475,0 -0.38447,2.92127 a 55.986283,55.986283 0 0 1 0.34983,0.0465 l 0.38447,-2.92127 z m -29.90621,3.93723 -0.32607,0.13487 1.12757,2.72232 a 55.986283,55.986283 0 0 1 0.32608,-0.13488 z m 44.77971,0 -1.12808,2.72283 a 55.986283,55.986283 0 0 1 0.32451,0.13487 l 1.12757,-2.72283 z m -58.1272,7.65224 -0.27905,0.21498 1.79369,2.33783 a 55.986283,55.986283 0 0 1 0.27956,-0.21445 z m 71.47265,0 -1.79369,2.33784 a 55.986283,55.986283 0 0 1 0.27956,0.21497 l 1.79369,-2.33783 z m -82.38259,10.84585 -0.21497,0.27905 2.33784,1.79421 a 55.986283,55.986283 0 0 1 0.21447,-0.27957 z m 93.29302,0 -2.33783,1.79369 a 55.986283,55.986283 0 0 1 0.21445,0.27905 l 2.33786,-1.79369 z m -101.02588,13.301 -0.13435,0.32607 2.72179,1.12759 a 55.986283,55.986283 0 0 1 0.13488,-0.32608 z m 108.75823,0 -2.7223,1.12758 a 55.986283,55.986283 0 0 1 0.13486,0.32608 l 2.72179,-1.12759 z m -112.78537,14.847152 -0.045,0.34985 2.92127,0.38447 a 55.986283,55.986283 0 0 1 0.0465,-0.34933 z m 116.81251,0 -2.9223,0.38448 a 55.986283,55.986283 0 0 1 0.046,0.34984 l 2.92126,-0.38447 z m -113.9362,15.00064 -2.92127,0.38447 0.045,0.34933 2.9223,-0.38499 a 55.986283,55.986283 0 0 1 -0.046,-0.34881 z m 111.06042,0 a 55.986283,55.986283 0 0 1 -0.0465,0.34933 l 2.9223,0.38447 0.0449,-0.34933 z m -107.32163,14.12988 -2.72231,1.12758 0.13435,0.32608 2.72283,-1.12809 a 55.986283,55.986283 0 0 1 -0.13487,-0.32557 z m 103.58283,0 a 55.986283,55.986283 0 0 1 -0.13539,0.32608 l 2.72283,1.12758 0.13435,-0.32608 z m -96.31557,12.67933 -2.33733,1.79369 0.21497,0.27957 2.33734,-1.79317 a 55.986283,55.986283 0 0 1 -0.21498,-0.28009 z m 89.04781,0 a 55.986283,55.986283 0 0 1 -0.21447,0.27957 l 2.33732,1.79369 0.21448,-0.27957 z m -78.74509,10.36733 -1.79419,2.33887 0.27905,0.21446 1.79472,-2.33888 a 55.986283,55.986283 0 0 1 -0.27958,-0.21445 z m 68.44287,5.3e-4 a 55.986283,55.986283 0 0 1 -0.27958,0.21445 l 1.79422,2.33836 0.27956,-0.21445 z m -55.80849,7.34735 -1.1281,2.72335 0.32607,0.13488 1.1281,-2.72335 a 55.986283,55.986283 0 0 1 -0.32607,-0.13488 z m 43.17361,0 a 55.986283,55.986283 0 0 1 -0.32401,0.13436 l 1.12808,2.72387 0.324,-0.13488 z m -29.06957,3.82664 -0.38447,2.92179 0.34986,0.047 0.38497,-2.9223 a 55.986283,55.986283 0 0 1 -0.35036,-0.0465 z m 14.9655,0 a 55.986283,55.986283 0 0 1 -0.35036,0.0465 l 0.385,2.9223 0.34983,-0.047 z"
       style="color:#000000;font-style:normal;font-variant:normal;font-weight:normal;font-stretch:normal;font-size:medium;line-height:normal;font-family:sans-serif;font-variant-ligatures:normal;font-variant-position:normal;font-variant-caps:normal;font-variant-numeric:normal;font-variant-alternates:normal;font-variant-east-asian:normal;font-feature-settings:normal;font-variation-settings:normal;text-indent:0;text-align:start;text-decoration:none;text-decoration-line:none;text-decoration-style:solid;text-decoration-color:#000000;letter-spacing:normal;word-spacing:normal;text-transform:none;writing-mode:lr-tb;direction:ltr;text-orientation:mixed;dominant-baseline:auto;baseline-shift:baseline;text-anchor:start;white-space:normal;shape-padding:0;shape-margin:0;inline-size:0;clip-rule:nonzero;display:inline;overflow:visible;visibility:visible;opacity:1;isolation:auto;mix-blend-mode:normal;color-interpolation:sRGB;color-interpolation-filters:linearRGB;solid-color:#000000;solid-opacity:1;vector-effect:none;fill:#000000;fill-opacity:1;fill-rule:nonzero;stroke:none;stroke-width:0.352777;stroke-linecap:butt;stroke-linejoin:miter;stroke-miterlimit:4;stroke-dasharray:none;stroke-dashoffset:0;stroke-opacity:1;color-rendering:auto;image-rendering:auto;shape-rendering:auto;text-rendering:auto;enable-background:accumulate;stop-color:#000000;stop-opacity:1"
       id="path3974-3" />
    <path
       d="m 352.91974,-143.61349 -0.68213,0.1819 1.14463,4.27106 a 54.512959,54.512959 0 0 1 0.68161,-0.18242 z m 29.82402,0 -1.14412,4.27054 a 54.512959,54.512959 0 0 1 0.6811,0.18242 l 1.14463,-4.27106 z m -56.33404,15.09417 -0.50023,0.49971 3.12694,3.12694 a 54.512959,54.512959 0 0 1 0.49971,-0.50023 z m 82.84353,0 -3.12591,3.1259 a 54.512959,54.512959 0 0 1 0.49971,0.50023 l 3.12642,-3.12642 z m -98.25551,26.32811 -0.1819,0.68161 4.27054,1.14411 a 54.512959,54.512959 0 0 1 0.18242,-0.68109 z m 113.668,0 -4.27106,1.14463 a 54.512959,54.512959 0 0 1 0.18242,0.68109 l 4.27003,-1.14411 z m -109.57936,29.361512 -4.27054,1.14412 0.1819,0.68161 4.27106,-1.14463 a 54.512959,54.512959 0 0 1 -0.18242,-0.6811 z m 105.49124,0 a 54.512959,54.512959 0 0 1 -0.18294,0.6811 l 4.27106,1.14463 0.18139,-0.68161 z m -91.54171,24.52771 -3.12642,3.12642 0.50023,0.49972 3.12642,-3.12642 a 54.512959,54.512959 0 0 1 -0.50023,-0.49972 z m 77.59166,0 a 54.512959,54.512959 0 0 1 -0.50023,0.49972 l 3.12591,3.12592 0.50022,-0.49972 z m -53.24533,14.26683 -1.14463,4.27107 0.68213,0.18137 1.14411,-4.2695 a 54.512959,54.512959 0 0 1 -0.68161,-0.18294 z m 28.8985,0 a 54.512959,54.512959 0 0 1 -0.6811,0.18242 l 1.14412,4.27001 0.68161,-0.18137 z"
       style="color:#000000;font-style:normal;font-variant:normal;font-weight:normal;font-stretch:normal;font-size:medium;line-height:normal;font-family:sans-serif;font-variant-ligatures:normal;font-variant-position:normal;font-variant-caps:normal;font-variant-numeric:normal;font-variant-alternates:normal;font-variant-east-asian:normal;font-feature-settings:normal;font-variation-settings:normal;text-indent:0;text-align:start;text-decoration:none;text-decoration-line:none;text-decoration-style:solid;text-decoration-color:#000000;letter-spacing:normal;word-spacing:normal;text-transform:none;writing-mode:lr-tb;direction:ltr;text-orientation:mixed;dominant-baseline:auto;baseline-shift:baseline;text-anchor:start;white-space:normal;shape-padding:0;shape-margin:0;inline-size:0;clip-rule:nonzero;display:inline;overflow:visible;visibility:visible;opacity:1;isolation:auto;mix-blend-mode:normal;color-interpolation:sRGB;color-interpolation-filters:linearRGB;solid-color:#000000;solid-opacity:1;vector-effect:none;fill:#000000;fill-opacity:1;fill-rule:nonzero;stroke:none;stroke-width:0.705556;stroke-linecap:butt;stroke-linejoin:miter;stroke-miterlimit:4;stroke-dasharray:none;stroke-dashoffset:0;stroke-opacity:1;color-rendering:auto;image-rendering:auto;shape-rendering:auto;text-rendering:auto;enable-background:accumulate;stop-color:#000000;stop-opacity:1"
       id="path3922-3" />
    <path
       d="m 367.30256,-145.53172 v 5.8968 a 53.03964,53.03964 0 0 1 0.52917,-0.003 53.03964,53.03964 0 0 1 0.52917,0.003 v -5.8968 z m -28.47888,7.63106 -0.91569,0.52916 2.94812,5.10615 a 53.03964,53.03964 0 0 1 0.91572,-0.52916 z m 58.0156,0 -2.94815,5.10666 a 53.03964,53.03964 0 0 1 0.91675,0.52865 l 2.94762,-5.10615 z m -79.78119,21.37699 -0.52917,0.91777 5.10667,2.94814 a 53.03964,53.03964 0 0 1 0.52968,-0.91725 z m 101.54679,0 -5.10667,2.94866 a 53.03964,53.03964 0 0 1 0.52967,0.91725 l 5.10667,-2.94814 z m -109.70702,29.396652 v 1.05834 h 5.8968 a 53.03964,53.03964 0 0 1 -0.003,-0.52969 53.03964,53.03964 0 0 1 0.003,-0.52865 z m 111.97095,0 a 53.03964,53.03964 0 0 1 0.003,0.52865 53.03964,53.03964 0 0 1 -0.003,0.52969 h 5.8963 v -1.05834 z m -6.84093,26.58804 a 53.03964,53.03964 0 0 1 -0.52917,0.91674 l 5.10617,2.94814 0.52967,-0.91622 z m -92.39229,5.3e-4 -5.10667,2.94814 0.52917,0.91623 5.10667,-2.94814 a 53.03964,53.03964 0 0 1 -0.52917,-0.91623 z m 19.22001,19.60758 -2.94761,5.10614 0.91569,0.5297 2.94865,-5.1072 a 53.03964,53.03964 0 0 1 -0.91673,-0.52864 z m 53.95175,0 a 53.03964,53.03964 0 0 1 -0.91519,0.52864 l 2.94712,5.10514 0.91622,-0.52764 z m -27.50479,7.36958 v 5.89679 h 1.05834 v -5.89679 a 53.03964,53.03964 0 0 1 -0.52917,0.003 53.03964,53.03964 0 0 1 -0.52917,-0.003 z"
       style="color:#000000;font-style:normal;font-variant:normal;font-weight:normal;font-stretch:normal;font-size:medium;line-height:normal;font-family:sans-serif;font-variant-ligatures:normal;font-variant-position:normal;font-variant-caps:normal;font-variant-numeric:normal;font-variant-alternates:normal;font-variant-east-asian:normal;font-feature-settings:normal;font-variation-settings:normal;text-indent:0;text-align:start;text-decoration:none;text-decoration-line:none;text-decoration-style:solid;text-decoration-color:#000000;letter-spacing:normal;word-spacing:normal;text-transform:none;writing-mode:lr-tb;direction:ltr;text-orientation:mixed;dominant-baseline:auto;baseline-shift:baseline;text-anchor:start;white-space:normal;shape-padding:0;shape-margin:0;inline-size:0;clip-rule:nonzero;display:inline;overflow:visible;visibility:visible;opacity:1;isolation:auto;mix-blend-mode:normal;color-interpolation:sRGB;color-interpolation-filters:linearRGB;solid-color:#000000;solid-opacity:1;vector-effect:none;fill:#000000;fill-opacity:1;fill-rule:nonzero;stroke:none;stroke-width:1.05833;stroke-linecap:butt;stroke-linejoin:miter;stroke-miterlimit:4;stroke-dasharray:none;stroke-dashoffset:0;stroke-opacity:1;color-rendering:auto;image-rendering:auto;shape-rendering:auto;text-rendering:auto;enable-background:accumulate;stop-color:#000000;stop-opacity:1"
       id="path3889-1" />
    <text
       xml:space="preserve"
       style="font-size:10.5833px;line-height:1.25;font-family:Bahnschrift;-inkscape-font-specification:Bahnschrift;stroke-width:0.264583"
       x="193.14583"
       y="473.41516"
       id="text4373"><tspan
         sodipodi:role="line"
         id="tspan4371"
         x="193.14583"
         y="473.41516"
         style="stroke-width:0.264583" /></text>
    <path
       id="path4471"
       style="font-size:10.5833px;line-height:1.25;font-family:Bahnschrift;-inkscape-font-specification:Bahnschrift;stroke-width:0.264583"
       d="m 389.11747,-130.23103 c -0.69936,0 -1.23163,0.18775 -1.5968,0.56327 -0.36518,0.37206 -0.54777,0.89572 -0.54777,1.57096 v 3.4158 c 0,0.6718 0.18087,1.19547 0.5426,1.57096 0.36518,0.37553 0.89917,0.56328 1.60197,0.56328 0.69935,0 1.23162,-0.18603 1.5968,-0.55809 0.36518,-0.37552 0.54777,-0.90091 0.54777,-1.57615 v -3.4158 c 0,-0.67868 -0.18259,-1.20406 -0.54777,-1.57615 -0.36173,-0.37205 -0.894,-0.55808 -1.5968,-0.55808 z m 4.46484,0.093 -1.0697,0.71313 v 1.09038 l 1.0697,-0.65628 v 6.36654 h 1.0542 v -7.51377 z m -4.46484,0.9095 c 0.37551,0 0.65112,0.0982 0.82682,0.29457 0.1757,0.19293 0.26355,0.47199 0.26355,0.83716 v 3.4158 c 0,0.36518 -0.0896,0.64595 -0.26872,0.84233 -0.1757,0.19293 -0.44958,0.2894 -0.82165,0.2894 -0.37207,0 -0.64768,-0.0965 -0.82683,-0.2894 -0.1757,-0.19638 -0.26355,-0.47715 -0.26355,-0.84233 v -3.4158 c 0,-0.36517 0.0879,-0.64423 0.26355,-0.83716 0.1757,-0.19638 0.45131,-0.29457 0.82683,-0.29457 z" />
    <path
       id="path4476"
       style="font-size:10.5833px;line-height:1.25;font-family:Bahnschrift;-inkscape-font-specification:Bahnschrift;stroke-width:0.264583"
       d="m 404.78006,-113.41346 c -0.69935,0 -1.23162,0.18775 -1.5968,0.56327 -0.36518,0.37206 -0.54777,0.89573 -0.54777,1.57097 v 3.4158 c 0,0.6718 0.18087,1.19546 0.5426,1.57096 0.36518,0.37552 0.89917,0.56326 1.60197,0.56326 0.69935,0 1.23162,-0.18602 1.5968,-0.55808 0.36518,-0.37552 0.54777,-0.9009 0.54777,-1.57614 v -3.4158 c 0,-0.67868 -0.18259,-1.20407 -0.54777,-1.57615 -0.36173,-0.37206 -0.89401,-0.55809 -1.5968,-0.55809 z m 5.66891,0.0155 c -0.39619,0 -0.74587,0.0809 -1.04904,0.24286 -0.30316,0.15848 -0.55122,0.39103 -0.74414,0.69763 -0.18949,0.30318 -0.31524,0.67008 -0.37724,1.10072 v 0.005 h 1.09038 v -0.005 c 0.0413,-0.33073 0.15675,-0.58566 0.34623,-0.76481 0.18948,-0.18259 0.43753,-0.2739 0.74414,-0.2739 0.32383,0 0.57361,0.0827 0.74931,0.24805 0.1757,0.16537 0.26355,0.39791 0.26355,0.69763 v 0.0103 c 0,0.18603 -0.0431,0.38759 -0.12919,0.60463 -0.0827,0.2136 -0.19982,0.42029 -0.3514,0.6201 l -2.62,3.49332 v 0.91415 h 4.23747 v -1.00252 h -2.84221 l 2.17558,-2.95587 c 0.19637,-0.26871 0.34968,-0.54777 0.45992,-0.83717 0.11025,-0.28937 0.16537,-0.56671 0.16537,-0.83198 v -0.005 c 0,-0.41341 -0.0827,-0.76655 -0.24805,-1.05936 -0.16536,-0.29284 -0.40652,-0.51504 -0.72347,-0.66662 -0.31695,-0.15505 -0.69935,-0.23254 -1.14721,-0.23254 z m -5.66891,0.987 c 0.37551,0 0.65112,0.0982 0.82682,0.29456 0.1757,0.19293 0.26355,0.47199 0.26355,0.83717 v 3.4158 c 0,0.36517 -0.0896,0.64595 -0.26872,0.84232 -0.1757,0.19294 -0.44958,0.2894 -0.82165,0.2894 -0.37207,0 -0.64768,-0.0965 -0.82682,-0.2894 -0.1757,-0.19637 -0.26355,-0.47715 -0.26355,-0.84232 v -3.4158 c 0,-0.36518 0.0879,-0.64424 0.26355,-0.83717 0.17569,-0.19637 0.4513,-0.29456 0.82682,-0.29456 z" />
    <path
       id="path4481"
       style="font-size:10.5833px;line-height:1.25;font-family:Bahnschrift;-inkscape-font-specification:Bahnschrift;stroke-width:0.264583"
       d="m 410.99055,-90.440251 c -0.69935,0 -1.23162,0.18774 -1.5968,0.56327 -0.36517,0.37208 -0.54777,0.89572 -0.54777,1.57096 v 3.41582 c 0,0.67178 0.18087,1.19544 0.5426,1.57097 0.36517,0.37549 0.89917,0.56327 1.60197,0.56327 0.69935,0 1.23162,-0.18606 1.5968,-0.55811 0.36518,-0.37553 0.54777,-0.90088 0.54777,-1.57613 v -3.41582 c 0,-0.67868 -0.18259,-1.20407 -0.54777,-1.57612 -0.36173,-0.37209 -0.894,-0.55811 -1.5968,-0.55811 z m 5.60172,0.0155 c -0.37896,0 -0.71485,0.0758 -1.00768,0.22738 -0.29284,0.15158 -0.53572,0.37378 -0.72864,0.66662 -0.18948,0.29282 -0.31867,0.64423 -0.38758,1.05421 h 1.06971 c 0.0448,-0.21016 0.11541,-0.38413 0.21187,-0.52195 0.0999,-0.14123 0.22049,-0.24458 0.36173,-0.31006 0.14125,-0.0689 0.30145,-0.10335 0.48059,-0.10335 0.3135,0 0.55466,0.081 0.72348,0.24289 0.17225,0.16192 0.25838,0.39103 0.25838,0.68728 v 0.23254 c 0,0.32041 -0.081,0.56846 -0.24288,0.74417 -0.16192,0.17568 -0.3893,0.26352 -0.68213,0.26352 h -0.53227 v 1.00254 h 0.53227 c 0.33417,0 0.59255,0.10334 0.77514,0.31006 0.18259,0.20326 0.27389,0.49266 0.27389,0.86815 v 0.22739 c 0,0.33763 -0.0965,0.59944 -0.28939,0.78549 -0.19292,0.18603 -0.46336,0.27903 -0.81132,0.27903 -0.22048,0 -0.41341,-0.0327 -0.57877,-0.0982 -0.16192,-0.0689 -0.29456,-0.17227 -0.39791,-0.31006 -0.10336,-0.13783 -0.17054,-0.31351 -0.20154,-0.52711 h -1.07487 c 0.0517,0.40997 0.17398,0.76137 0.3669,1.05421 0.19638,0.28937 0.45476,0.5116 0.77515,0.66662 0.32039,0.15158 0.69074,0.22738 1.11104,0.22738 0.45475,0 0.84233,-0.081 1.16272,-0.24289 0.32384,-0.16192 0.57017,-0.39791 0.73897,-0.70797 0.16882,-0.31007 0.25322,-0.68384 0.25322,-1.12138 v -0.12401 c 0,-0.48575 -0.11368,-0.88541 -0.34106,-1.19891 -0.22393,-0.31348 -0.54088,-0.51504 -0.95085,-0.6046 0.37207,-0.12748 0.65973,-0.33073 0.863,-0.60979 0.20326,-0.27905 0.30489,-0.60634 0.30489,-0.98184 v -0.12403 c 0,-0.62011 -0.17743,-1.1007 -0.53227,-1.44177 -0.35485,-0.34108 -0.85611,-0.5116 -1.50379,-0.5116 z m -5.60172,0.98703 c 0.37551,0 0.65112,0.0982 0.82682,0.29453 0.1757,0.19294 0.26355,0.47199 0.26355,0.83717 v 3.41582 c 0,0.36518 -0.0896,0.64596 -0.26872,0.84233 -0.1757,0.19291 -0.44958,0.28938 -0.82165,0.28938 -0.37207,0 -0.64768,-0.0965 -0.82682,-0.28938 -0.1757,-0.19637 -0.26355,-0.47715 -0.26355,-0.84233 v -3.41582 c 0,-0.36518 0.0879,-0.64423 0.26355,-0.83717 0.1757,-0.19637 0.45131,-0.29453 0.82682,-0.29453 z" />
    <path
       id="path4486"
       style="font-size:10.5833px;line-height:1.25;font-family:Bahnschrift;-inkscape-font-specification:Bahnschrift;stroke-width:0.264583"
       d="m 404.50351,-67.452157 c -0.69935,0 -1.23162,0.18778 -1.5968,0.56327 -0.36518,0.37209 -0.54777,0.89575 -0.54777,1.57097 v 3.415821 c 0,0.671777 0.18087,1.19544 0.5426,1.570964 0.36518,0.375496 0.89917,0.563271 1.60197,0.563271 0.69936,0 1.23163,-0.186028 1.5968,-0.558112 0.36518,-0.375497 0.54778,-0.90088 0.54778,-1.576123 v -3.415821 c 0,-0.67869 -0.1826,-1.20404 -0.54778,-1.57613 -0.36173,-0.37205 -0.89401,-0.55811 -1.5968,-0.55811 z m 6.12366,0.0982 -2.52181,5.441526 v 0.914691 h 3.24011 v 1.157552 h 1.02836 v -1.157552 h 0.56328 v -0.976709 h -0.56328 v -2.289255 h -1.02836 v 2.289255 h -2.09289 l 2.45979,-5.379508 z m -6.12366,0.90435 c 0.37552,0 0.65113,0.0982 0.82683,0.29456 0.1757,0.1929 0.26355,0.47196 0.26355,0.83714 v 3.415821 c 0,0.365178 -0.0896,0.645954 -0.26872,0.842328 -0.1757,0.192907 -0.44959,0.289374 -0.82166,0.289374 -0.37207,0 -0.64768,-0.09647 -0.82682,-0.289374 -0.1757,-0.196374 -0.26355,-0.47715 -0.26355,-0.842328 v -3.415821 c 0,-0.36518 0.0879,-0.64424 0.26355,-0.83714 0.1757,-0.19638 0.45131,-0.29456 0.82682,-0.29456 z" />
    <path
       id="path4491"
       style="font-size:10.5833px;line-height:1.25;font-family:Bahnschrift;-inkscape-font-specification:Bahnschrift;stroke-width:0.264583"
       d="m 387.93344,-50.623693 c -0.69935,0 -1.23163,0.187748 -1.5968,0.563271 -0.36518,0.372058 -0.54777,0.895721 -0.54777,1.570964 v 3.415797 c 0,0.671804 0.18087,1.195467 0.5426,1.570964 0.36518,0.375523 0.89918,0.563271 1.60197,0.563271 0.69936,0 1.23162,-0.186028 1.5968,-0.558085 0.36518,-0.375524 0.54777,-0.900907 0.54777,-1.57615 v -3.415797 c 0,-0.678683 -0.18259,-1.204066 -0.54777,-1.576149 -0.36173,-0.372057 -0.894,-0.558086 -1.5968,-0.558086 z m 3.87057,0.093 v 3.958431 h 0.96118 c 0.12747,-0.186055 0.27561,-0.330729 0.44442,-0.434102 0.1688,-0.103346 0.3445,-0.155019 0.52709,-0.155019 0.33763,0 0.59773,0.113691 0.78032,0.341074 0.18603,0.223917 0.27905,0.539142 0.27905,0.945674 v 0.630449 c 0,0.409972 -0.093,0.728636 -0.27905,0.956019 -0.18259,0.223917 -0.44269,0.335889 -0.78032,0.335889 -0.29283,0 -0.53054,-0.0758 -0.71313,-0.227383 -0.18262,-0.15502 -0.29286,-0.370337 -0.33073,-0.645954 v -0.0047 h -1.0542 v 0.0047 c 0.062,0.396187 0.18432,0.735542 0.36691,1.018037 0.18603,0.282496 0.42546,0.497814 0.7183,0.645954 0.29628,0.14814 0.63389,0.222197 1.01285,0.222197 0.44442,0 0.82511,-0.08956 1.14205,-0.268711 0.31695,-0.182589 0.55811,-0.44614 0.72348,-0.790654 0.16536,-0.344514 0.24804,-0.759645 0.24804,-1.245394 v -0.630449 c 0,-0.485775 -0.081,-0.900906 -0.24288,-1.24542 -0.15847,-0.344488 -0.39274,-0.606319 -0.7028,-0.785469 -0.30661,-0.179149 -0.67696,-0.26871 -1.11104,-0.26871 -0.16881,0 -0.33417,0.02924 -0.49609,0.08784 -0.16192,0.05858 -0.30834,0.141235 -0.43926,0.248047 v -1.689814 h 2.77503 v -1.002533 z m -3.87057,0.909505 c 0.37551,0 0.65112,0.09819 0.82682,0.294561 0.1757,0.192934 0.26355,0.47199 0.26355,0.837168 v 3.415797 c 0,0.365178 -0.0896,0.645954 -0.26871,0.842328 -0.1757,0.192934 -0.44959,0.289401 -0.82166,0.289401 -0.37207,0 -0.64767,-0.09647 -0.82682,-0.289401 -0.1757,-0.196374 -0.26355,-0.47715 -0.26355,-0.842328 v -3.415797 c 0,-0.365178 0.0879,-0.644234 0.26355,-0.837168 0.1757,-0.196374 0.45131,-0.294561 0.82682,-0.294561 z" />
    <path
       id="path4496"
       style="font-size:10.5833px;line-height:1.25;font-family:Bahnschrift;-inkscape-font-specification:Bahnschrift;stroke-width:0.264583"
       d="m 365.03351,-44.463299 c -0.69935,0 -1.23162,0.187775 -1.5968,0.563271 -0.36518,0.372084 -0.54777,0.895721 -0.54777,1.570964 v 3.415824 c 0,0.671777 0.18087,1.19544 0.5426,1.570963 0.36518,0.375497 0.89918,0.563272 1.60197,0.563272 0.69935,0 1.23162,-0.186029 1.5968,-0.558113 0.36518,-0.375523 0.54777,-0.900906 0.54777,-1.576122 v -3.415824 c 0,-0.678683 -0.18259,-1.20404 -0.54777,-1.576123 -0.36174,-0.372057 -0.894,-0.558112 -1.5968,-0.558112 z m 5.70456,0.09303 -1.63246,3.234928 c -0.0241,0.04826 -0.0482,0.09821 -0.0724,0.149887 -0.0241,0.04823 -0.0465,0.09819 -0.0672,0.14986 -0.12401,0.29628 -0.21875,0.59772 -0.28422,0.904319 -0.0655,0.306626 -0.0982,0.599467 -0.0982,0.878496 v 0.0052 c 0,0.478869 0.081,0.888815 0.24288,1.229889 0.16537,0.337609 0.4048,0.596001 0.7183,0.77515 0.31338,0.17563 0.69098,0.263472 1.13172,0.263552 0.44074,-8e-5 0.81781,-0.08964 1.13119,-0.268711 0.31695,-0.17915 0.55637,-0.440981 0.7183,-0.785495 0.16536,-0.344514 0.24804,-0.757926 0.24804,-1.240235 v -0.0052 c 0,-0.47199 -0.0724,-0.875056 -0.21704,-1.209225 -0.14469,-0.337635 -0.35656,-0.594281 -0.63562,-0.769991 -0.27905,-0.175683 -0.61323,-0.263551 -1.00252,-0.263551 -0.22049,0 -0.41342,0.04479 -0.57878,0.134355 -0.0525,0.02844 -0.0991,0.06197 -0.14366,0.09768 l 1.67845,-3.280939 z m -5.70456,0.909506 c 0.37551,0 0.65112,0.09819 0.82682,0.29456 0.1757,0.192908 0.26355,0.471964 0.26355,0.837142 v 3.415824 c 0,0.365177 -0.0896,0.645953 -0.26872,0.842327 -0.1757,0.192908 -0.44958,0.289375 -0.82165,0.289375 -0.37207,0 -0.64768,-0.09647 -0.82682,-0.289375 -0.1757,-0.196374 -0.26355,-0.47715 -0.26355,-0.842327 v -3.415824 c 0,-0.365178 0.0879,-0.644234 0.26355,-0.837142 0.17569,-0.196374 0.45131,-0.29456 0.82682,-0.29456 z m 5.59139,3.152245 c 0.35139,0 0.62184,0.115438 0.81132,0.346234 0.18948,0.227383 0.28422,0.551233 0.28422,0.971524 v 0.0052 c 0,0.382429 -0.0913,0.676963 -0.27389,0.883682 -0.17914,0.206692 -0.4358,0.310065 -0.76997,0.310065 -0.33073,0 -0.5874,-0.101653 -0.76998,-0.304906 -0.17915,-0.206692 -0.26872,-0.501253 -0.26872,-0.883655 v -0.0052 c 0,-0.420291 0.0861,-0.74586 0.25838,-0.976683 0.17225,-0.230796 0.41513,-0.346234 0.72864,-0.346234 z" />
    <path
       id="path4501"
       style="font-size:10.5833px;line-height:1.25;font-family:Bahnschrift;-inkscape-font-specification:Bahnschrift;stroke-width:0.264583"
       d="m 342.12263,-50.623707 c -0.69935,0 -1.23162,0.187775 -1.5968,0.563271 -0.36518,0.372084 -0.54777,0.895721 -0.54777,1.570964 v 3.415823 c 0,0.671778 0.18087,1.195441 0.5426,1.570964 0.36518,0.375497 0.89917,0.563271 1.60197,0.563271 0.69936,0 1.23163,-0.186028 1.59681,-0.558112 0.36517,-0.375496 0.54777,-0.900906 0.54777,-1.576123 v -3.415823 c 0,-0.678683 -0.1826,-1.204066 -0.54777,-1.576123 -0.36174,-0.372057 -0.89401,-0.558112 -1.59681,-0.558112 z m 3.4985,0.09303 v 2.082562 h 1.0542 v -1.080056 h 1.91202 l -1.94303,6.511237 h 1.12138 l 1.94303,-6.573228 v -0.940515 z m -3.4985,0.909505 c 0.37552,0 0.65113,0.09819 0.82683,0.294561 0.17569,0.192908 0.26354,0.471964 0.26354,0.837142 v 3.415823 c 0,0.365178 -0.0896,0.645954 -0.26871,0.842328 -0.1757,0.192908 -0.44959,0.289375 -0.82166,0.289375 -0.37207,0 -0.64768,-0.09647 -0.82682,-0.289375 -0.1757,-0.196374 -0.26355,-0.47715 -0.26355,-0.842328 v -3.415823 c 0,-0.365178 0.0879,-0.644234 0.26355,-0.837142 0.1757,-0.196374 0.45131,-0.294561 0.82682,-0.294561 z" />
    <path
       id="path4506"
       style="font-size:10.5833px;line-height:1.25;font-family:Bahnschrift;-inkscape-font-specification:Bahnschrift;stroke-width:0.264583"
       d="m 324.99445,-67.452148 c -0.69935,0 -1.23162,0.187748 -1.5968,0.563272 -0.36518,0.372057 -0.54777,0.89572 -0.54777,1.570963 v 3.415797 c 0,0.671804 0.18086,1.195467 0.54261,1.570964 0.36517,0.375523 0.89916,0.563271 1.60196,0.563271 0.69936,0 1.23163,-0.186028 1.59681,-0.558085 0.36517,-0.375523 0.54777,-0.900907 0.54777,-1.57615 v -3.415797 c 0,-0.678683 -0.1826,-1.204066 -0.54777,-1.576123 -0.36174,-0.372083 -0.894,-0.558112 -1.59681,-0.558112 z m 5.90662,0.01551 c -0.42375,0 -0.79582,0.08268 -1.11621,0.248047 -0.32039,0.161925 -0.56844,0.392721 -0.74414,0.692467 -0.1757,0.296254 -0.26355,0.640768 -0.26355,1.033515 v 0.18087 c 0,0.303159 0.0792,0.59256 0.23771,0.868177 0.16192,0.27215 0.37551,0.480589 0.64079,0.625263 -0.31351,0.168831 -0.565,0.418597 -0.75448,0.749327 -0.18604,0.330729 -0.27905,0.683842 -0.27905,1.059365 v 0.12401 c 0,0.416851 0.093,0.783775 0.27905,1.10072 0.18948,0.313504 0.45648,0.556365 0.80099,0.728636 0.34451,0.172243 0.74414,0.258365 1.19889,0.258365 0.45475,0 0.85438,-0.08612 1.19889,-0.258365 0.34451,-0.172271 0.60979,-0.415132 0.79582,-0.728636 0.18948,-0.316945 0.28422,-0.683869 0.28422,-1.10072 v -0.12401 c 0,-0.375523 -0.0965,-0.726916 -0.28939,-1.054206 -0.18948,-0.330729 -0.44269,-0.582216 -0.75964,-0.754486 0.26872,-0.141234 0.48404,-0.347953 0.64596,-0.620104 0.16535,-0.272177 0.24804,-0.563271 0.24804,-0.873336 v -0.18087 c 0,-0.392747 -0.0878,-0.737261 -0.26355,-1.033515 -0.1757,-0.299746 -0.42374,-0.530542 -0.74414,-0.692467 -0.32039,-0.165365 -0.69247,-0.248047 -1.11621,-0.248047 z m -5.90662,0.987001 c 0.37552,0 0.65113,0.09819 0.82683,0.294561 0.1757,0.192934 0.26355,0.47199 0.26355,0.837168 v 3.415797 c 0,0.365178 -0.0896,0.645981 -0.26872,0.842328 -0.1757,0.192934 -0.44959,0.289401 -0.82166,0.289401 -0.37206,0 -0.64767,-0.09647 -0.82682,-0.289401 -0.1757,-0.196347 -0.26355,-0.47715 -0.26355,-0.842328 v -3.415797 c 0,-0.365178 0.0878,-0.644234 0.26355,-0.837168 0.1757,-0.196374 0.45131,-0.294561 0.82682,-0.294561 z m 5.90662,0.02585 c 0.21015,0 0.39619,0.04479 0.55811,0.134356 0.16192,0.08612 0.28766,0.210158 0.37723,0.372083 0.0896,0.161899 0.13436,0.347954 0.13436,0.558086 v 0.07236 c 0,0.220478 -0.0448,0.415131 -0.13436,0.583936 -0.0896,0.168804 -0.21531,0.29972 -0.37723,0.392747 -0.16192,0.08956 -0.34796,0.134356 -0.55811,0.134356 -0.21015,0 -0.39618,-0.04479 -0.5581,-0.134356 -0.16192,-0.09303 -0.28768,-0.222223 -0.37724,-0.387588 -0.0896,-0.168804 -0.13436,-0.361738 -0.13436,-0.578776 v -0.0775 c 0,-0.213599 0.0448,-0.401373 0.13436,-0.563272 0.0896,-0.161925 0.21532,-0.285962 0.37724,-0.372083 0.16192,-0.08956 0.34795,-0.134356 0.5581,-0.134356 z m 0,3.260778 c 0.2446,0 0.45992,0.04823 0.64596,0.144701 0.18603,0.09647 0.329,0.232542 0.42891,0.408252 0.10335,0.172243 0.15503,0.373777 0.15503,0.604599 v 0.07236 c 0,0.227356 -0.0517,0.428889 -0.15503,0.604599 -0.0999,0.17227 -0.24288,0.306626 -0.42891,0.403066 -0.18604,0.09647 -0.40136,0.144701 -0.64596,0.144701 -0.2446,0 -0.45992,-0.04651 -0.64595,-0.139515 -0.18604,-0.09647 -0.33073,-0.230822 -0.43409,-0.403093 -0.0999,-0.172243 -0.14986,-0.372057 -0.14986,-0.59944 v -0.07752 c 0,-0.230796 0.05,-0.434075 0.14986,-0.609758 0.10336,-0.17571 0.24805,-0.311785 0.43409,-0.408252 0.18603,-0.09647 0.40135,-0.144701 0.64595,-0.1447 z" />
    <path
       id="path4511"
       style="font-size:10.5833px;line-height:1.25;font-family:Bahnschrift;-inkscape-font-specification:Bahnschrift;stroke-width:0.264583"
       d="m 319.05624,-90.440251 c -0.69936,0 -1.23163,0.18778 -1.59681,0.56327 -0.36517,0.37209 -0.54777,0.89575 -0.54777,1.57097 v 3.41582 c 0,0.671803 0.18087,1.19544 0.54261,1.570963 0.36518,0.375523 0.89917,0.563272 1.60197,0.563272 0.69935,0 1.23162,-0.186029 1.5968,-0.558112 0.36518,-0.375497 0.54777,-0.90088 0.54777,-1.576123 v -3.41582 c 0,-0.67866 -0.18259,-1.20407 -0.54777,-1.57613 -0.36173,-0.37208 -0.894,-0.55811 -1.5968,-0.55811 z m 5.64823,0.016 c -0.44097,0 -0.81993,0.0896 -1.13688,0.26872 -0.31351,0.17914 -0.55294,0.44098 -0.7183,0.78549 -0.16192,0.34451 -0.24288,0.75965 -0.24288,1.24539 v 0.005 c 0,0.43752 0.0741,0.82336 0.22221,1.15755 0.15157,0.33073 0.36345,0.58738 0.63562,0.76997 0.27216,0.182586 0.58739,0.273894 0.94568,0.273894 0.23771,0 0.44269,-0.03617 0.61494,-0.108532 0.0672,-0.02897 0.12576,-0.06591 0.17984,-0.106972 l -1.67329,3.300572 h 1.13689 l 1.60196,-3.219424 c 0.0241,-0.04479 0.0465,-0.08956 0.0672,-0.134358 0.0207,-0.0482 0.0413,-0.0947 0.062,-0.13954 0.12746,-0.29972 0.22565,-0.60116 0.29455,-0.90434 0.0689,-0.3066 0.10336,-0.59428 0.10336,-0.863 v -0.005 c 0,-0.48919 -0.0827,-0.90779 -0.24805,-1.25574 -0.16192,-0.34795 -0.39964,-0.61323 -0.71314,-0.79582 -0.3135,-0.18258 -0.69074,-0.27387 -1.13171,-0.27387 z m -5.64823,0.9865 c 0.37551,0 0.65112,0.0982 0.82682,0.29456 0.1757,0.19291 0.26355,0.47199 0.26355,0.83715 v 3.41582 c 0,0.365178 -0.0896,0.645953 -0.26872,0.842327 -0.1757,0.192934 -0.44959,0.289375 -0.82165,0.289375 -0.37207,0 -0.64768,-0.09644 -0.82683,-0.289375 -0.1757,-0.196374 -0.26355,-0.477149 -0.26355,-0.842327 v -3.41582 c 0,-0.36516 0.0879,-0.64424 0.26355,-0.83715 0.1757,-0.19637 0.45131,-0.29456 0.82683,-0.29456 z m 5.64823,0.0264 c 0.33073,0 0.58566,0.10853 0.76481,0.32557 0.18259,0.21703 0.27389,0.52363 0.27389,0.91982 v 0.005 c 0,0.40653 -0.0913,0.72175 -0.27389,0.94567 -0.17915,0.22394 -0.43408,0.33592 -0.76481,0.33592 -0.33417,0 -0.59255,-0.11026 -0.77515,-0.33073 -0.17914,-0.22395 -0.26871,-0.53917 -0.26871,-0.9457 v -0.005 c 0,-0.39966 0.0896,-0.70798 0.26871,-0.92501 0.1826,-0.21704 0.44098,-0.32557 0.77515,-0.32557 z" />
    <path
       id="path4516"
       style="font-size:10.5833px;line-height:1.25;font-family:Bahnschrift;-inkscape-font-specification:Bahnschrift;stroke-width:0.264583"
       d="m 329.95272,-113.41348 c -0.69936,0 -1.23162,0.18778 -1.5968,0.56327 -0.36518,0.37209 -0.54777,0.89575 -0.54777,1.57097 v 3.41582 c 0,0.67178 0.18086,1.19544 0.5426,1.57096 0.36518,0.3755 0.89917,0.56328 1.60197,0.56328 0.69935,0 1.23162,-0.18603 1.5968,-0.55812 0.36518,-0.37549 0.54777,-0.90088 0.54777,-1.57612 v -3.41582 c 0,-0.67869 -0.18259,-1.20407 -0.54777,-1.57613 -0.36174,-0.37208 -0.894,-0.55811 -1.5968,-0.55811 z m -4.89893,0.093 -1.0697,0.71313 v 1.09038 l 1.0697,-0.6563 v 6.36653 h 1.0542 v -7.51374 z m 4.89893,0.90951 c 0.37551,0 0.65112,0.0982 0.82682,0.29456 0.1757,0.1929 0.26355,0.47196 0.26355,0.83714 v 3.41582 c 0,0.36518 -0.0896,0.64596 -0.26872,0.84233 -0.1757,0.19291 -0.44959,0.28937 -0.82165,0.28937 -0.37207,0 -0.64768,-0.0965 -0.82683,-0.28937 -0.17569,-0.19637 -0.26355,-0.47715 -0.26355,-0.84233 v -3.41582 c 0,-0.36518 0.0879,-0.64424 0.26355,-0.83714 0.1757,-0.19638 0.45132,-0.29456 0.82683,-0.29456 z" />
    <path
       id="path4521"
       style="font-size:10.5833px;line-height:1.25;font-family:Bahnschrift;-inkscape-font-specification:Bahnschrift;stroke-width:0.264583"
       d="m 343.10901,-130.14578 -1.0697,0.71313 v 1.09038 l 1.0697,-0.65627 v 6.36653 h 1.0542 v -7.51377 z m 3.514,0 -1.0697,0.71313 v 1.09038 l 1.0697,-0.65627 v 6.36653 h 1.0542 v -7.51377 z" />
    <path
       id="path4466"
       style="font-size:10.5833px;line-height:1.25;font-family:Bahnschrift;-inkscape-font-specification:Bahnschrift;stroke-width:0.264583"
       d="m 369.64533,-136.34094 c -0.39619,0 -0.74587,0.081 -1.04904,0.24288 -0.30316,0.15846 -0.55121,0.39101 -0.74414,0.69763 -0.18948,0.30316 -0.31523,0.67006 -0.37723,1.10072 v 0.005 h 1.09037 v -0.005 c 0.0413,-0.33075 0.15675,-0.58568 0.34623,-0.76483 0.18948,-0.18259 0.43753,-0.27387 0.74414,-0.27387 0.32383,0 0.57361,0.0827 0.74931,0.24805 0.1757,0.16536 0.26355,0.3979 0.26355,0.69762 v 0.0103 c 0,0.18603 -0.0431,0.38756 -0.12919,0.6046 -0.0827,0.2136 -0.19981,0.42032 -0.3514,0.62013 l -2.62,3.49332 v 0.91466 h 4.23747 v -1.0025 h -2.8422 l 2.17558,-2.9559 c 0.19636,-0.26871 0.34967,-0.54777 0.45992,-0.83717 0.11024,-0.28937 0.16536,-0.56671 0.16536,-0.83198 v -0.005 c 0,-0.41341 -0.0827,-0.76655 -0.24805,-1.05937 -0.16536,-0.29284 -0.40651,-0.51506 -0.72347,-0.66664 -0.31694,-0.15502 -0.69935,-0.23254 -1.14721,-0.23254 z m -4.71806,0.0775 -1.06971,0.71313 v 1.09038 l 1.06971,-0.6563 v 6.36653 h 1.0542 v -7.51374 z" />
    <circle
       r="3.5162153"
       cy="69.097"
       cx="-31.122204"
       id="path916"
       style="opacity:0.999;fill:#000000;stroke:#ff0000;stroke-width:0.00657807" />
    <path
       inkscape:transform-center-x="9.2341176e-06"
       transform="matrix(0.01648198,0,0,0.55923519,-32.792581,96.801616)"
       inkscape:transform-center-y="-11.154341"
       d="m 101.34493,-151.94823 34.54698,59.837119 34.54697,59.837118 -69.09395,-1e-6 -69.093949,-2e-6 34.546976,-59.837115 z"
       inkscape:randomized="0"
       inkscape:rounded="0"
       inkscape:flatsided="false"
       sodipodi:arg2="-0.52359878"
       sodipodi:arg1="-1.5707963"
       sodipodi:r2="39.891411"
       sodipodi:r1="79.782822"
       sodipodi:cy="-72.165405"
       sodipodi:cx="101.34493"
       sodipodi:sides="3"
       id="path922"
       style="opacity:0.999;fill:#000000;stroke:#ff0000;stroke-width:0.0882941"
       sodipodi:type="star" />
    <circle
       style="opacity:0.999;fill:#000000;stroke:#ff0000;stroke-width:0.00657807"
       id="circle1986"
       cx="-127.79375"
       cy="-105.83334"
       r="3.5162153" />
    <path
       d="m -127.96946,-163.2922 -0.52102,30.36657 -0.6968,40.612721 h 1.39361 1.39359 l -0.69679,-40.612721 -0.52102,-30.36657 z"
       inkscape:transform-center-y="-13.537554"
       inkscape:transform-center-x="1.4234118e-05"
       style="opacity:0.999;fill:#000000;stroke:#000000;stroke-width:0.01033;stroke-opacity:1"
       id="path1988" />
    <circle
       style="opacity:0.999;fill:none;fill-opacity:1;stroke:#000000;stroke-width:0.1;stroke-opacity:1"
       id="circle2843-9"
       cx="-127.79375"
       cy="-105.83334"
       r="58.93293" />
  </g>
</svg>
